<?xml version="1.0" standalone="no"?>
<!DOCTYPE svg PUBLIC "-//W3C//DTD SVG 20010904//EN"
 "http://www.w3.org/TR/2001/REC-SVG-20010904/DTD/svg10.dtd">
<svg version="1.0" xmlns="http://www.w3.org/2000/svg"
 width="824.000000pt" height="303.000000pt" viewBox="0 0 824.000000 303.000000"
 preserveAspectRatio="xMidYMid meet">
<metadata>
Created by potrace 1.16, written by Peter Selinger 2001-2019
</metadata>
<g transform="translate(0.000000,303.000000) scale(0.100000,-0.100000)"
fill="#000000" stroke="none">
<path d="M1410 2604 c-60 -13 -90 -25 -190 -72 -92 -44 -235 -174 -343 -311
-15 -20 -39 -49 -53 -66 -48 -57 -91 -120 -99 -144 -4 -14 -22 -47 -40 -75
-19 -30 -49 -108 -75 -191 -23 -77 -46 -147 -51 -156 -11 -22 -28 -116 -39
-224 -10 -106 2 -219 29 -255 10 -14 26 -40 35 -59 59 -113 217 -178 378 -154
128 20 170 34 386 128 59 26 64 27 80 11 9 -9 18 -33 19 -54 9 -106 16 -158
23 -167 5 -5 11 -28 15 -50 4 -22 13 -49 20 -60 17 -28 56 -134 62 -170 3 -16
16 -41 28 -55 13 -14 39 -50 59 -80 66 -102 69 -104 143 -71 45 21 59 42 107
163 26 66 29 92 41 301 3 55 13 123 24 155 20 61 27 109 37 265 8 129 14 148
52 170 47 28 182 84 317 132 126 45 255 109 255 127 0 15 -113 2 -154 -17 -18
-9 -47 -18 -64 -20 -35 -4 -100 -31 -122 -49 -8 -7 -32 -16 -53 -19 -22 -3
-46 -12 -54 -19 -18 -14 -96 -37 -131 -38 -22 0 -23 3 -18 43 26 198 29 442 6
551 -9 44 -21 90 -27 101 -6 11 -16 44 -22 74 -26 121 -197 303 -322 342 -83
26 -180 31 -259 13z m322 -128 c64 -27 167 -162 193 -253 32 -108 45 -272 39
-476 -7 -223 -15 -299 -33 -321 -7 -8 -44 -30 -82 -47 -38 -18 -69 -35 -69
-39 0 -4 -11 -7 -26 -7 -14 0 -35 -10 -48 -22 -12 -11 -27 -21 -32 -21 -6 0
-37 -14 -69 -32 l-58 -31 -18 21 c-10 13 -22 56 -29 109 -6 49 -16 104 -21
124 -11 46 -77 139 -111 158 -25 15 -29 14 -52 -8 -33 -31 -66 -119 -66 -177
0 -38 3 -46 25 -54 14 -5 25 -17 26 -27 0 -11 8 -2 18 20 41 87 57 75 66 -52
3 -51 11 -103 17 -116 20 -44 3 -69 -79 -119 -111 -68 -201 -99 -328 -112 -27
-3 -55 -7 -61 -9 -16 -5 -164 24 -191 37 -12 6 -35 29 -50 52 -15 23 -38 54
-50 69 -20 25 -23 40 -23 120 0 51 5 119 10 152 6 33 17 96 24 140 8 44 23
100 35 125 11 25 21 53 21 63 0 25 77 182 106 216 13 16 31 45 39 64 8 19 18
37 23 39 4 1 19 21 32 43 42 71 171 213 221 244 27 17 49 34 49 39 0 11 98 54
180 80 82 25 318 30 372 8z m200 -1211 c-6 -92 -44 -329 -63 -388 -10 -33 -19
-71 -19 -84 0 -13 -5 -34 -12 -46 -13 -25 -25 -75 -38 -167 -17 -120 -37 -143
-88 -100 -23 19 -102 176 -102 203 0 9 -4 18 -8 21 -4 2 -9 19 -10 37 -1 18
-11 69 -22 113 -23 102 -33 233 -18 260 22 41 53 60 248 149 14 7 41 22 60 35
19 13 43 22 55 20 18 -3 20 -9 17 -53z"/>
<path d="M3085 2102 c-6 -5 -29 -14 -52 -22 -38 -11 -45 -20 -77 -84 -20 -39
-41 -97 -47 -128 -9 -50 -7 -62 10 -96 11 -21 27 -45 36 -52 10 -8 21 -24 25
-36 5 -12 25 -35 46 -50 64 -49 152 -32 187 36 16 30 18 53 14 160 -5 144 -31
234 -72 250 -13 5 -26 14 -30 19 -7 13 -27 14 -40 3z m25 -102 c0 -11 9 -46
20 -77 11 -31 23 -78 26 -105 6 -41 3 -54 -20 -88 -14 -22 -30 -40 -34 -40
-19 0 -32 27 -32 65 0 52 -13 73 -33 57 -8 -7 -17 -26 -21 -42 -7 -36 -23 -39
-35 -7 -11 31 -3 124 14 158 15 27 92 99 107 99 4 0 8 -9 8 -20z"/>
<path d="M3530 2031 c-14 -27 -13 -31 10 -31 21 0 40 -27 33 -48 -3 -7 -16
-25 -30 -40 -14 -15 -29 -38 -34 -51 -5 -13 -9 -132 -8 -266 1 -142 -3 -257
-9 -277 -6 -18 -13 -54 -17 -80 -3 -25 -26 -85 -50 -133 -31 -61 -45 -100 -45
-128 l0 -40 38 6 c24 4 47 1 66 -8 24 -13 31 -13 56 0 16 8 35 15 43 15 11 0
106 60 198 125 39 27 137 142 160 187 21 42 25 104 8 142 -18 39 -110 61 -157
37 -9 -5 -34 -17 -55 -27 -21 -11 -52 -34 -69 -51 -57 -59 -65 -50 -72 90 -11
192 -10 200 20 450 8 62 -1 93 -33 123 -31 29 -39 30 -53 5z m330 -682 c0 -12
-16 -47 -35 -79 -19 -32 -35 -61 -35 -66 0 -13 -43 -54 -57 -54 -7 0 -33 -18
-56 -40 -24 -21 -70 -53 -103 -70 -57 -31 -59 -31 -62 -11 -4 27 62 147 89
162 11 6 25 24 31 40 5 16 14 29 18 29 4 0 30 15 58 34 62 43 123 76 139 76 7
0 13 -10 13 -21z"/>
<path d="M6143 1980 c-17 -7 -46 -57 -104 -176 -69 -141 -93 -181 -161 -260
-45 -51 -85 -91 -90 -88 -14 9 -36 70 -44 121 -3 26 -9 52 -12 57 -2 4 -6 33
-9 63 -3 44 -9 59 -31 78 -35 31 -48 31 -68 0 -15 -23 -15 -28 1 -67 25 -62
21 -104 -17 -190 -38 -85 -73 -136 -103 -149 -11 -5 -27 -14 -35 -19 -8 -6
-31 -17 -50 -25 -19 -8 -46 -24 -60 -35 -14 -11 -41 -23 -61 -26 -49 -8 -99
37 -99 90 0 19 -7 56 -16 81 -8 26 -14 60 -12 77 2 23 -2 33 -21 42 -24 13
-61 92 -61 132 0 24 -44 69 -83 83 -95 36 -191 -22 -257 -154 -11 -22 -29 -56
-41 -75 -19 -32 -20 -45 -15 -139 5 -86 10 -109 26 -126 23 -24 25 -36 8 -53
-15 -15 -48 12 -48 38 0 10 -6 20 -14 23 -8 3 -17 25 -20 49 -3 24 -10 86 -17
138 -19 156 -43 190 -135 190 -40 0 -59 -6 -89 -27 -41 -31 -119 -106 -141
-138 -28 -40 -34 -3 -14 83 14 57 19 116 19 195 0 110 -1 115 -24 127 -19 10
-27 10 -39 1 -8 -7 -13 -18 -11 -24 4 -11 -15 -136 -46 -312 -12 -64 -19 -173
-20 -297 0 -112 32 -165 75 -123 15 15 36 76 36 103 0 7 11 32 24 55 14 23 30
63 36 88 17 69 147 189 204 189 15 0 36 -111 36 -189 0 -112 74 -232 159 -261
45 -15 47 -15 101 12 30 16 74 33 98 38 55 13 108 49 157 105 21 25 42 45 46
45 5 0 15 -15 23 -32 7 -18 29 -48 49 -66 29 -28 44 -35 95 -39 50 -5 68 -2
107 18 63 31 119 82 200 179 37 44 73 80 80 80 7 0 18 -15 24 -33 16 -46 58
-83 104 -90 36 -6 42 -3 111 63 40 38 82 88 95 112 52 100 101 153 101 109 0
-33 12 -24 54 40 37 57 75 171 76 225 0 32 -28 94 -43 93 -6 0 -22 -4 -34 -9z
m-1097 -304 c9 -14 19 -55 21 -90 5 -56 2 -71 -26 -130 -37 -78 -90 -140 -143
-167 l-39 -20 -27 21 c-40 32 -51 59 -52 126 0 52 6 73 45 149 61 120 71 130
144 133 55 3 61 1 77 -22z"/>
<path d="M3024 1369 c-16 -18 -19 -34 -16 -103 1 -44 7 -118 12 -163 12 -99 0
-162 -38 -196 -14 -12 -55 -50 -92 -85 -56 -52 -72 -62 -102 -62 -76 0 -101
85 -79 262 8 67 -11 134 -44 152 -11 6 -23 16 -27 21 -22 29 -40 -91 -19 -125
6 -8 7 -19 3 -25 -4 -5 -8 -21 -10 -33 -1 -13 -22 -72 -45 -130 l-42 -107 -90
-67 c-49 -38 -95 -68 -102 -68 -27 0 -44 46 -37 101 7 66 120 301 166 348 29
29 78 43 78 21 0 -13 27 -13 36 1 3 6 1 16 -5 22 -6 6 -11 18 -11 27 0 23 -66
84 -83 77 -19 -7 -68 -97 -60 -110 3 -5 2 -7 -4 -4 -18 11 -107 -100 -119
-148 -3 -16 -21 -57 -39 -90 -53 -97 -60 -127 -45 -208 10 -57 19 -76 46 -104
40 -39 69 -42 132 -11 51 24 143 112 187 177 17 25 35 46 40 48 6 2 16 -12 23
-30 16 -45 48 -72 102 -85 34 -8 51 -8 75 2 16 8 44 19 62 26 34 13 88 67 167
168 27 34 51 62 53 62 2 0 16 -6 31 -14 68 -34 142 -25 184 21 21 23 44 161
33 200 -4 15 -7 44 -6 63 1 27 -1 31 -8 20 -6 -8 -11 -23 -11 -33 0 -10 -13
-48 -30 -84 -16 -35 -30 -68 -30 -73 0 -14 -30 -40 -46 -40 -9 0 -29 13 -45
30 l-30 30 7 115 c6 96 4 120 -10 150 -15 32 -26 40 -48 36 -5 0 -8 5 -8 13 0
8 -7 17 -16 20 -21 8 -18 9 -40 -15z"/>
<path d="M7605 1165 c-14 -13 -25 -29 -25 -34 0 -6 14 -38 32 -71 27 -53 36
-61 72 -71 23 -6 66 -17 96 -26 95 -26 136 -5 109 55 -9 21 -29 38 -63 54 -27
13 -54 24 -60 24 -6 1 -16 2 -21 3 -6 0 -16 15 -23 31 -13 28 -56 60 -82 60
-6 0 -22 -11 -35 -25z"/>
<path d="M7025 1057 c-11 -8 -37 -14 -58 -14 -21 -1 -44 -6 -51 -12 -7 -6 -21
-9 -29 -5 -15 5 -88 -15 -129 -37 -10 -5 -24 -9 -31 -9 -8 0 -36 -11 -63 -25
-27 -14 -54 -25 -60 -25 -6 0 -17 -7 -24 -15 -14 -17 -47 -20 -52 -4 -2 6 -14
2 -30 -10 -28 -22 -43 -27 -33 -11 9 15 -55 0 -91 -22 -17 -10 -55 -20 -84
-23 -31 -2 -61 -11 -73 -22 -11 -10 -17 -12 -12 -4 6 11 2 12 -21 6 -16 -4
-45 -11 -64 -16 -118 -27 -162 -40 -225 -63 -94 -34 -130 -43 -350 -85 -60
-12 -133 -28 -161 -36 -29 -8 -63 -15 -75 -15 -70 -2 -148 -7 -174 -13 -42
-10 -212 -18 -323 -17 -91 1 -93 1 -143 -34 -40 -29 -51 -33 -55 -21 -9 23
-50 18 -66 -7 -21 -36 -11 -70 30 -96 26 -18 45 -22 69 -19 23 4 33 2 33 -7 0
-8 13 -19 29 -26 24 -10 35 -9 62 6 19 9 28 19 22 21 -7 3 -13 11 -13 19 0 7
-6 11 -14 8 -15 -6 -42 31 -29 39 5 3 42 1 83 -3 53 -5 91 -3 130 7 30 8 80
13 112 12 34 -1 63 3 72 10 8 7 53 15 98 17 155 8 165 9 181 23 9 7 38 13 64
13 26 0 55 7 63 14 9 7 49 16 89 19 40 3 83 12 94 20 12 8 35 15 53 15 17 0
34 3 38 7 10 10 79 33 101 33 12 0 38 9 60 20 22 11 52 20 67 20 15 0 53 11
83 25 31 13 80 28 108 31 29 4 71 15 95 25 23 10 77 27 120 38 42 10 100 29
127 41 28 13 66 26 85 30 19 5 60 18 90 30 30 12 75 26 100 30 25 5 73 15 108
24 l63 16 46 -37 c35 -29 48 -35 61 -26 19 11 30 43 31 89 1 26 -4 33 -37 47
-47 20 -71 21 -97 4z"/>
</g>
</svg>
