<?xml version="1.0" standalone="no"?>
<!DOCTYPE svg PUBLIC "-//W3C//DTD SVG 20010904//EN"
 "http://www.w3.org/TR/2001/REC-SVG-20010904/DTD/svg10.dtd">
<svg version="1.0" xmlns="http://www.w3.org/2000/svg"
 width="1209.000000pt" height="2903.000000pt" viewBox="0 0 1209.000000 2903.000000"
 preserveAspectRatio="xMidYMid meet">

<g transform="translate(0.000000,2903.000000) scale(0.100000,-0.100000)"
fill="#000000" stroke="none">
<path d="M7394 27536 c5 -26 3 -37 -6 -40 -7 -1 -28 -8 -46 -14 -20 -6 -30 -7
-26 -1 4 7 -7 8 -29 4 -26 -5 -36 -3 -40 9 -5 13 -1 15 23 11 17 -3 30 -1 30
5 0 17 -48 11 -90 -10 -23 -12 -40 -28 -40 -37 0 -13 -3 -14 -12 -5 -14 14
-68 16 -68 2 0 -5 -9 -10 -20 -10 -11 0 -20 4 -20 8 0 5 -6 9 -14 9 -11 0 -12
-6 -5 -24 5 -14 5 -23 -1 -23 -6 0 -10 3 -10 8 0 4 -4 13 -9 21 -8 12 -11 12
-25 -1 -8 -9 -12 -19 -8 -22 3 -4 -4 -9 -17 -13 -17 -4 -19 -8 -9 -14 8 -5 2
-8 -17 -6 -29 2 -43 -20 -21 -35 5 -3 -7 -5 -26 -3 -34 3 -36 2 -34 -28 1 -24
9 -35 36 -50 19 -10 37 -23 38 -28 2 -5 10 -9 18 -9 8 0 14 -5 14 -10 0 -6 9
-20 20 -32 20 -22 27 -48 13 -48 -5 0 -20 6 -35 14 -28 15 -38 12 -38 -12 0
-8 6 -12 15 -8 8 3 15 1 15 -4 0 -5 9 -12 20 -15 12 -4 20 -14 19 -23 -1 -9 3
-30 10 -46 6 -16 9 -31 6 -34 -2 -3 0 -11 5 -17 19 -23 -21 -26 -57 -5 -19 11
-41 20 -49 20 -8 0 -13 4 -10 9 4 5 1 11 -5 13 -7 2 -18 28 -26 58 -12 47 -12
55 3 71 15 16 14 17 -5 12 -14 -3 -21 -1 -21 8 0 26 -21 89 -29 89 -5 0 -5
-17 0 -37 11 -49 11 -66 0 -59 -11 7 -27 -12 -35 -44 -7 -24 -6 -24 8 -6 9 10
13 23 10 27 -3 5 2 9 10 9 8 0 17 -8 20 -17 7 -26 19 -86 21 -103 0 -9 4 -21
9 -28 12 -20 -11 -14 -38 11 -13 12 -33 28 -44 36 -11 8 -19 22 -17 32 2 11
-4 20 -15 24 -22 7 -31 27 -37 78 -4 40 -21 92 -22 70 -1 -7 -8 -13 -17 -13
-8 0 -13 4 -9 9 6 11 -22 18 -52 13 -16 -3 -23 -11 -23 -28 0 -16 -6 -24 -17
-24 -14 0 -15 2 -4 9 9 6 10 11 2 15 -14 9 -34 -41 -28 -71 3 -15 -1 -23 -9
-23 -8 0 -14 -8 -14 -17 0 -9 -7 -24 -15 -34 -14 -15 -14 -18 0 -32 8 -9 15
-20 15 -25 0 -5 11 -7 25 -4 19 3 25 0 25 -12 0 -14 4 -15 20 -6 14 7 20 8 20
0 0 -6 -11 -16 -25 -22 -14 -6 -25 -15 -25 -20 0 -4 -6 -8 -14 -8 -28 0 -26
-19 3 -49 37 -38 33 -63 -8 -51 -16 4 -40 5 -55 3 -25 -5 -26 -7 -12 -28 12
-18 12 -25 3 -28 -9 -3 -9 -7 0 -19 7 -8 10 -18 6 -21 -11 -11 -23 -8 -23 6 0
7 -7 23 -16 35 -13 18 -19 21 -30 11 -8 -6 -14 -21 -14 -32 0 -11 -3 -17 -7
-13 -12 11 -31 99 -26 113 8 22 -14 15 -42 -13 -14 -14 -23 -29 -20 -35 3 -5
-1 -6 -9 -3 -9 3 -16 4 -16 1 0 -6 46 -93 87 -165 20 -35 22 -46 12 -58 -6 -8
-9 -17 -5 -21 3 -3 6 -1 6 5 0 7 7 12 16 12 13 0 15 -6 9 -27 -6 -27 -6 -27 9
-8 14 18 15 18 16 3 0 -10 5 -18 10 -18 6 0 10 -7 10 -15 0 -7 8 -18 17 -24
13 -7 14 -12 6 -23 -17 -20 -25 -70 -10 -65 7 3 11 10 10 16 -2 6 3 11 11 11
11 0 13 -10 9 -42 -2 -24 -9 -47 -14 -52 -5 -6 -9 -18 -9 -29 0 -10 -5 -15
-10 -12 -6 4 -8 10 -5 15 7 12 -16 25 -24 13 -3 -5 -14 -12 -24 -16 -15 -5
-16 -3 -7 12 8 16 7 18 -13 14 -22 -5 -22 -4 2 16 13 12 21 24 18 27 -3 3 -16
-7 -30 -21 l-24 -27 -21 23 c-12 12 -19 26 -16 31 3 4 1 8 -4 8 -8 0 -10 16
-15 103 -1 9 -4 17 -7 17 -6 0 -6 1 -15 99 -6 75 -14 92 -16 35 -4 -129 -3
-164 3 -164 3 0 7 -15 8 -32 2 -64 5 -83 13 -96 13 -20 -12 -43 -39 -36 -15 4
-24 2 -24 -6 0 -7 7 -10 16 -6 11 4 15 2 11 -6 -4 -11 23 -47 30 -40 9 7 24 0
22 -10 -1 -7 2 -22 6 -32 6 -13 4 -21 -4 -24 -8 -3 -5 -9 8 -19 21 -14 31 -40
11 -28 -5 3 -10 -4 -10 -16 0 -18 2 -19 15 -9 9 7 18 10 22 6 3 -3 2 -6 -4 -6
-5 0 -10 -27 -10 -60 0 -33 4 -60 9 -60 4 0 8 -4 8 -10 0 -21 -20 -9 -26 15
-6 24 -24 35 -24 15 0 -5 -4 -10 -10 -10 -5 0 -10 7 -10 15 0 8 5 15 11 15 8
0 7 5 -2 16 -9 11 -15 12 -17 5 -2 -7 -11 -3 -22 9 -10 12 -16 28 -13 36 3 9
0 12 -9 9 -10 -4 -21 15 -38 70 -32 95 -38 80 -11 -28 11 -46 22 -98 23 -117
2 -25 14 -46 41 -73 34 -34 44 -39 72 -34 30 5 33 3 39 -25 3 -16 15 -42 26
-58 11 -15 20 -33 20 -39 0 -6 4 -11 8 -11 4 0 14 -16 21 -35 7 -19 17 -35 22
-35 5 0 9 -6 9 -14 0 -8 4 -16 8 -18 9 -3 92 -123 92 -132 0 -4 8 -15 18 -25
52 -57 62 -70 62 -80 0 -6 7 -14 15 -17 8 -4 15 -12 15 -20 0 -8 7 -14 15 -14
8 0 15 -6 15 -14 0 -7 7 -19 15 -26 21 -18 19 -33 -4 -25 -11 3 -22 1 -25 -4
-10 -15 -245 -5 -256 11 -3 4 -27 9 -53 12 -26 2 -54 9 -62 16 -8 6 -18 9 -23
7 -7 -5 -14 13 -44 128 -5 22 -16 55 -24 73 -8 18 -14 48 -14 67 0 21 -7 39
-18 47 -41 29 -58 69 -65 156 -3 24 -7 45 -9 48 -3 2 -2 23 2 46 9 46 4 67
-19 85 -9 6 -16 15 -16 20 0 5 -7 17 -16 26 -12 12 -19 13 -28 4 -16 -16 -13
4 4 27 8 11 15 29 15 41 0 12 3 25 7 29 4 3 8 14 9 24 1 9 4 26 7 37 2 11 2
14 0 8 -3 -7 -10 -13 -18 -13 -8 0 -11 -7 -8 -20 3 -12 0 -20 -8 -20 -7 0 -10
-3 -6 -6 3 -4 -1 -23 -9 -43 -9 -20 -17 -42 -18 -49 -1 -8 -9 -18 -17 -23 -11
-7 -8 -9 11 -10 18 -1 20 -3 7 -6 -11 -3 -16 -11 -13 -19 3 -7 0 -13 -6 -11
-7 1 -13 -10 -13 -26 -1 -16 -5 -31 -10 -35 -6 -4 -10 -13 -11 -19 -3 -39 -5
-44 -15 -37 -11 7 -29 -12 -29 -31 0 -5 4 -3 10 5 11 18 24 6 26 -25 0 -15 -5
-25 -13 -25 -7 0 -13 -5 -13 -11 0 -5 -4 -7 -10 -4 -5 3 -10 -1 -10 -9 0 -10
9 -16 21 -16 17 0 19 -3 10 -13 -6 -8 -8 -17 -4 -20 3 -4 -2 -7 -13 -7 -17 -1
-18 -1 -2 -11 14 -8 15 -15 8 -35 -6 -16 -7 -32 0 -43 6 -12 5 -22 -1 -28 -8
-8 -7 -13 0 -17 17 -11 14 -46 -4 -40 -34 13 -11 -139 24 -161 6 -3 8 -12 4
-20 -3 -10 1 -15 12 -15 9 0 13 -5 9 -11 -6 -10 3 -37 27 -79 4 -8 18 -33 29
-55 12 -22 27 -45 35 -50 7 -6 15 -19 17 -30 4 -16 9 -13 24 20 42 86 146 162
170 124 4 -7 24 -76 43 -153 l36 -140 40 -1 c22 0 45 -3 52 -8 6 -4 13 -3 15
3 2 6 15 7 38 0 19 -5 60 -12 90 -15 30 -3 69 -8 85 -11 51 -9 70 -12 77 -13
13 -2 -4 -31 -17 -31 -16 0 -76 -59 -94 -93 -17 -32 -18 -77 -1 -87 7 -4 9
-13 6 -19 -4 -6 -12 -9 -17 -6 -5 3 -6 0 -3 -8 3 -9 13 -13 25 -10 14 4 19 0
19 -13 0 -15 -2 -16 -9 -5 -6 9 -11 10 -15 2 -4 -6 -17 -11 -29 -11 -18 0 -19
2 -7 10 13 8 13 10 -1 10 -9 0 -20 -7 -23 -16 -4 -9 -11 -12 -18 -7 -7 4 -22
6 -33 5 -17 -2 -17 -1 -5 7 10 7 11 11 3 11 -7 0 -14 12 -14 28 l-1 27 -7 -30
c-4 -20 -9 -26 -14 -17 -5 7 -5 21 -2 32 5 16 2 20 -18 20 -20 0 -23 4 -19 25
2 14 8 23 12 20 9 -5 20 29 19 60 0 15 -3 13 -14 -10 -12 -27 -13 -28 -14 -7
-1 12 -7 22 -16 22 -8 0 -15 5 -15 10 0 6 -18 -1 -41 -15 -32 -21 -43 -24 -55
-14 -10 8 -14 9 -14 0 0 -6 10 -15 22 -20 l22 -8 -22 -5 c-15 -4 -22 -2 -22 8
0 15 -30 34 -54 34 -10 0 -16 -9 -16 -25 0 -24 -2 -25 -22 -14 -22 12 -22 11
-8 -7 33 -43 108 -112 114 -106 4 3 4 -1 1 -10 -4 -11 0 -18 14 -23 13 -4 21
-15 21 -29 0 -14 10 -28 24 -35 14 -8 26 -26 30 -43 4 -21 10 -28 21 -25 8 4
17 2 20 -3 3 -4 -1 -11 -7 -13 -28 -11 48 -6 79 5 39 14 51 6 57 -37 5 -43 16
-66 28 -59 7 5 7 1 0 -12 -7 -13 -6 -24 5 -40 9 -15 11 -24 4 -29 -6 -3 -11
-2 -11 3 0 16 -36 20 -55 6 -15 -11 -20 -11 -27 -1 -6 9 -8 8 -8 -3 0 -8 4
-21 9 -29 5 -8 7 -20 4 -27 -6 -15 -67 17 -100 54 -12 13 -28 22 -35 19 -7 -2
-19 2 -26 9 -7 8 -9 14 -5 14 4 0 2 5 -5 12 -17 17 -45 -9 -32 -31 6 -13 5
-18 -5 -18 -8 0 -14 3 -13 6 2 22 -5 31 -22 31 -11 0 -20 4 -20 9 0 4 12 6 28
3 31 -5 20 12 -15 22 -16 5 -22 2 -25 -10 -3 -16 -4 -17 -20 -1 -9 9 -19 17
-22 17 -9 0 -80 73 -92 95 -6 11 -17 20 -25 20 -8 0 -17 5 -21 10 -18 24 -6
-13 14 -45 12 -19 32 -56 46 -82 13 -27 28 -48 33 -48 5 0 9 -5 9 -11 0 -5 11
-27 25 -47 14 -20 25 -43 25 -51 0 -8 10 -25 22 -38 12 -13 16 -23 10 -23 -7
0 -12 -7 -12 -16 0 -10 6 -14 14 -11 10 4 14 -3 13 -29 -1 -29 -4 -33 -21 -29
-14 3 -12 1 5 -8 23 -11 25 -16 22 -60 -3 -29 0 -54 8 -63 8 -10 8 -14 0 -14
-6 0 -11 -5 -11 -10 0 -6 8 -5 20 2 11 7 18 20 15 28 -3 9 1 8 10 -4 13 -17
12 -21 -9 -37 -13 -11 -28 -19 -34 -19 -22 0 -74 -34 -82 -54 -5 -11 -9 -15
-9 -8 -1 6 -8 12 -17 12 -14 0 -14 -1 0 -16 20 -19 20 -24 0 -24 -8 0 -12 5
-9 11 4 6 -2 5 -14 -3 -19 -12 -19 -13 -3 -20 16 -6 16 -7 -1 -7 -11 -1 -16
-6 -12 -13 4 -7 -3 -3 -14 10 -15 17 -26 21 -46 16 -20 -5 -23 -9 -14 -20 9
-11 15 -11 25 -3 11 9 14 7 14 -11 0 -18 -4 -21 -21 -17 -29 8 -49 -2 -42 -20
3 -8 0 -19 -8 -24 -23 -15 -35 -9 -15 6 25 19 7 19 -30 1 -15 -8 -31 -13 -36
-10 -4 3 -8 0 -8 -6 0 -8 -6 -7 -21 1 -13 6 -19 7 -15 1 3 -6 -1 -18 -10 -26
-14 -15 -14 -16 4 -16 26 0 48 -25 31 -36 -7 -4 -18 1 -27 12 -10 12 -13 14
-9 4 5 -18 -19 -57 -29 -47 -4 4 -13 2 -21 -4 -7 -6 -13 -8 -13 -4 0 5 -9 -2
-20 -15 -17 -19 -20 -20 -20 -6 0 11 -6 16 -17 14 -10 -2 -17 -9 -16 -14 1 -5
-9 -11 -23 -12 -17 -1 -24 3 -24 15 0 14 -2 14 -19 -3 -10 -10 -17 -22 -14
-26 2 -4 -24 -12 -57 -19 -39 -7 -57 -15 -53 -23 4 -6 -1 -5 -10 3 -15 11 -17
11 -17 -2 0 -18 -54 -39 -67 -26 -6 6 -22 5 -41 -2 -33 -11 -41 -24 -19 -32 6
-3 2 -6 -11 -6 -12 -1 -25 5 -28 13 -8 20 -31 10 -37 -16 -3 -11 -10 -17 -15
-14 -12 7 -44 -3 -38 -13 3 -4 -4 -13 -15 -20 -18 -11 -21 -9 -26 8 -3 12 -10
18 -15 15 -5 -3 -7 -12 -4 -20 6 -16 -3 -18 -24 -4 -12 8 -12 10 -1 10 8 0 12
3 9 6 -9 9 -48 -15 -45 -28 1 -6 -4 -13 -12 -16 -9 -3 -11 0 -6 8 6 9 3 9 -14
0 -12 -6 -20 -14 -17 -18 2 -4 -9 -8 -25 -9 -15 -1 -40 -9 -53 -18 -14 -9 -30
-14 -35 -11 -5 4 -12 2 -16 -3 -3 -6 -13 -7 -22 -4 -11 4 -14 3 -9 -5 5 -8 -1
-12 -17 -12 -25 0 -57 -28 -57 -49 0 -7 -9 -3 -20 10 -10 13 -19 19 -20 13 0
-6 -12 -16 -26 -23 -16 -7 -24 -17 -21 -26 7 -16 -18 -39 -33 -30 -6 3 -8 11
-5 16 4 5 1 9 -4 9 -6 0 -11 -4 -11 -10 0 -5 -7 -10 -16 -10 -8 0 -12 -4 -9
-10 3 -5 1 -10 -5 -10 -6 0 -9 -3 -6 -8 2 -4 -2 -18 -10 -32 -13 -24 -13 -24
-14 -3 0 12 5 23 11 25 8 3 6 9 -4 20 -9 8 -13 18 -10 22 4 3 1 6 -5 6 -19 0
-23 -18 -6 -28 15 -8 15 -10 0 -15 -8 -3 -18 -2 -21 3 -4 6 -11 10 -17 10 -7
0 -6 -5 1 -14 10 -12 6 -17 -23 -27 -20 -7 -36 -16 -36 -19 0 -4 -16 -7 -35
-8 -19 -1 -44 -6 -54 -12 -11 -5 -30 -10 -43 -10 -13 0 -31 -7 -41 -14 -18
-14 -18 -14 0 -19 10 -3 0 -5 -23 -6 -22 0 -44 -5 -50 -10 -5 -5 -18 -12 -29
-15 -12 -3 -9 -4 8 -2 15 2 27 -1 27 -5 0 -5 -6 -9 -14 -9 -8 0 -17 -6 -19
-12 -4 -10 -8 -10 -15 1 -7 10 -14 11 -28 2 -11 -6 -15 -11 -11 -11 4 0 -1 -9
-12 -21 -18 -19 -19 -55 -1 -44 4 2 5 -8 1 -23 -5 -25 -6 -26 -9 -4 -3 20 -6
21 -20 10 -12 -10 -14 -10 -8 0 4 6 2 12 -3 12 -6 0 -11 -6 -11 -12 -1 -8 -6
-6 -14 5 -7 9 -17 17 -22 17 -4 0 -3 -5 4 -12 17 -17 15 -28 -4 -28 -8 0 -13
-4 -9 -10 3 -5 -9 -9 -27 -9 -71 0 -81 -2 -108 -21 -15 -11 -33 -20 -40 -20
-6 0 -27 -16 -47 -35 -20 -19 -40 -35 -45 -35 -4 0 -8 -7 -8 -16 0 -8 -5 -12
-10 -9 -14 9 -121 -95 -180 -176 -27 -36 -79 -114 -116 -175 -37 -60 -82 -126
-100 -148 -38 -44 -68 -102 -68 -131 0 -11 -3 -22 -7 -25 -4 -3 -10 -32 -14
-65 -3 -32 -9 -62 -13 -65 -12 -8 -31 -80 -25 -96 3 -8 -1 -16 -10 -19 -8 -4
-14 -18 -14 -33 0 -55 -80 -338 -126 -451 -15 -35 -24 -67 -21 -72 3 -5 1 -9
-4 -9 -9 0 -22 -40 -27 -82 -1 -9 -5 -25 -9 -35 -4 -10 -10 -45 -12 -78 -8
-106 -24 -225 -59 -440 -19 -115 -41 -266 -49 -335 -9 -69 -22 -161 -31 -205
-25 -130 -94 -626 -99 -716 -9 -139 -51 -356 -87 -444 -29 -73 -33 -94 -41
-235 -11 -201 -36 -391 -105 -790 -97 -565 -88 -735 77 -1427 70 -295 104
-467 125 -634 20 -153 64 -351 100 -444 14 -38 48 -149 76 -245 27 -96 56
-192 64 -212 8 -21 20 -71 26 -110 12 -74 18 -89 146 -358 41 -85 88 -197 104
-247 37 -114 79 -178 143 -220 28 -18 57 -44 65 -57 13 -22 13 -29 -5 -67 -33
-75 -26 -171 24 -317 25 -73 47 -161 54 -215 14 -106 17 -321 6 -389 -4 -27
-3 -59 3 -77 8 -23 7 -36 -7 -63 -10 -18 -17 -39 -15 -46 1 -8 -6 -23 -16 -34
-22 -24 -22 -22 -28 -423 -12 -719 -14 -768 -33 -817 -9 -22 -7 -39 9 -85 11
-33 17 -68 14 -83 -4 -13 -1 -97 6 -185 15 -194 5 -340 -46 -705 -66 -469 -65
-462 -70 -880 -4 -315 -6 -339 -27 -395 -27 -76 -29 -226 -3 -365 26 -145 23
-194 -28 -372 -25 -87 -50 -190 -57 -230 -26 -162 -39 -256 -45 -312 -3 -32
-11 -68 -17 -80 -6 -11 -13 -41 -14 -66 -5 -116 -23 -298 -32 -325 -6 -16 -13
-73 -17 -125 -3 -52 -15 -169 -26 -260 -11 -91 -24 -264 -29 -385 -9 -234 -23
-333 -70 -510 -53 -202 -65 -622 -24 -860 39 -228 27 -404 -38 -565 -28 -71
-30 -81 -25 -175 3 -60 14 -127 26 -167 l21 -66 -24 -85 c-30 -105 -76 -327
-76 -371 0 -43 46 -112 114 -170 54 -45 54 -46 58 -113 2 -37 9 -68 15 -70 5
-2 8 -15 5 -28 -2 -14 1 -31 7 -39 6 -7 8 -27 5 -45 -4 -20 -3 -31 5 -31 6 0
11 5 11 10 0 6 6 10 14 10 8 0 23 11 34 25 17 21 22 22 37 11 13 -9 15 -15 7
-20 -7 -4 -16 -5 -21 -2 -12 8 -33 -19 -23 -29 4 -4 -3 -4 -15 -1 -14 5 -23 3
-23 -3 0 -6 5 -11 12 -11 6 0 8 -3 4 -7 -4 -5 -17 -8 -29 -8 -16 0 -23 -8 -29
-35 -4 -19 -5 -44 -1 -54 3 -10 9 -94 13 -185 5 -91 12 -186 17 -211 15 -73
75 -234 94 -253 11 -10 19 -15 19 -11 0 3 7 0 17 -7 12 -10 54 -14 159 -15
126 -1 363 18 383 30 4 3 50 14 102 25 52 10 134 34 183 53 72 27 100 43 146
88 70 68 115 134 124 186 5 21 19 66 32 98 30 74 30 84 -1 92 -14 3 -34 17
-44 30 -13 17 -21 20 -29 12 -16 -16 -28 -2 -14 15 12 14 7 27 -10 27 -5 0 -8
-6 -7 -12 3 -27 -2 -38 -16 -38 -24 0 -18 25 14 59 27 29 31 43 22 90 -1 2
-10 -7 -22 -20 l-20 -24 7 25 c4 14 10 27 14 30 4 3 10 12 13 20 4 10 6 8 6
-7 1 -13 6 -23 11 -23 6 0 10 -19 10 -42 0 -30 3 -39 9 -29 8 12 12 13 25 1
21 -17 33 -5 16 15 -7 9 -20 13 -28 10 -12 -4 -14 4 -10 45 4 38 2 50 -8 50
-19 0 -12 33 10 55 16 17 16 19 1 27 -15 9 -15 11 2 25 10 8 12 12 6 8 -22
-11 -14 6 13 32 14 13 40 27 58 30 17 3 39 13 49 21 9 8 20 12 23 9 10 -10 94
94 127 158 17 33 49 98 71 145 38 82 39 89 40 192 1 90 -2 108 -14 108 -9 1
-5 7 10 16 14 8 17 13 8 10 -10 -3 -18 -1 -18 4 0 6 6 10 14 10 9 0 13 13 14
38 0 20 23 105 51 188 69 204 68 265 -10 416 -21 43 -39 84 -39 92 0 7 -7 19
-15 26 -21 17 -19 30 4 30 16 0 31 18 31 36 0 3 -15 2 -32 -1 -29 -5 -34 -3
-45 22 -28 69 -28 70 27 77 52 7 70 26 24 26 -24 0 -25 2 -18 33 4 17 7 50 6
72 0 22 9 90 19 150 11 61 24 184 28 275 5 91 12 174 17 184 5 13 4 17 -4 12
-11 -7 -12 11 -16 214 -1 36 2 72 5 80 4 8 9 43 13 77 6 52 5 62 -7 57 -8 -3
-19 -15 -25 -27 l-11 -22 0 22 c-1 12 -6 25 -12 28 -6 4 -7 14 -4 24 4 9 11
54 15 101 15 148 40 241 73 268 8 7 12 23 9 37 -3 17 1 27 12 31 13 5 16 23
16 101 0 119 39 466 53 475 6 4 0 19 -17 39 l-27 32 25 26 c15 15 26 39 26 53
0 15 11 40 25 56 14 17 21 32 16 34 -10 3 14 93 32 116 13 17 27 15 27 -3 0
-8 4 -15 9 -15 11 0 4 120 -9 135 -7 9 -1 29 21 71 32 61 33 77 13 183 -6 30
-3 38 20 56 24 19 26 27 29 105 2 76 5 88 29 113 15 16 35 27 45 25 18 -3 21
2 72 152 58 167 73 204 95 233 33 44 77 145 65 152 -12 8 -12 68 2 82 5 5 21
70 35 144 35 195 44 228 76 293 l29 59 -21 22 c-35 37 -31 56 36 203 24 52 24
53 4 47 -28 -9 -25 2 14 49 18 23 36 51 40 63 4 13 12 22 18 20 6 -1 15 17 20
40 6 27 19 51 37 66 28 23 28 24 10 46 -23 28 -24 44 -4 61 8 7 15 24 15 39 0
15 6 33 13 39 7 8 13 44 13 90 2 54 11 107 32 178 45 145 51 176 62 314 7 77
18 139 29 165 23 52 83 110 138 132 25 11 44 26 47 38 3 12 22 42 42 68 28 36
37 56 36 83 -1 19 7 57 17 84 l19 49 -39 41 c-50 52 -50 78 -4 201 19 52 38
109 41 127 12 61 100 95 139 52 16 -18 16 -26 0 -186 -31 -291 -9 -445 90
-630 70 -134 77 -172 115 -664 11 -146 25 -310 31 -365 10 -88 15 -910 8
-1336 -1 -87 3 -143 10 -157 12 -22 15 -96 12 -264 -3 -116 10 -205 54 -393
19 -77 39 -169 45 -205 6 -36 20 -106 32 -157 20 -90 20 -96 4 -235 -21 -190
-20 -231 8 -330 22 -74 24 -93 16 -149 -15 -103 -13 -194 6 -210 17 -14 16
-46 -4 -149 -18 -92 -42 -330 -42 -418 0 -58 6 -101 21 -145 20 -58 20 -69 10
-177 -7 -63 -11 -194 -10 -290 2 -187 6 -160 -72 -515 -33 -148 -33 -352 0
-454 18 -57 22 -86 18 -134 -3 -38 2 -101 14 -171 41 -238 17 -382 -100 -612
-44 -86 -77 -166 -86 -209 -9 -38 -32 -124 -52 -190 -30 -101 -34 -128 -29
-177 5 -44 3 -68 -12 -105 -47 -117 -66 -266 -42 -328 9 -22 4 -40 -24 -103
-19 -43 -37 -91 -41 -109 -9 -45 8 -98 50 -148 31 -38 34 -48 25 -66 -9 -15
-9 -28 0 -49 7 -16 9 -37 6 -48 -4 -11 -2 -23 4 -27 17 -10 11 -47 -11 -72
-18 -19 -20 -25 -9 -38 10 -12 10 -21 1 -38 -6 -13 -12 -77 -14 -152 l-2 -131
35 -58 c61 -100 190 -220 295 -273 65 -34 178 -80 210 -87 17 -3 41 -9 55 -13
46 -12 324 -10 340 3 19 14 80 24 80 12 0 -5 6 -4 13 2 24 21 85 58 104 64 11
3 28 14 39 24 10 9 31 23 46 31 15 8 24 19 21 24 -4 6 0 8 9 4 11 -4 35 12 70
44 79 73 246 155 377 184 58 13 126 27 150 30 25 4 61 15 80 25 20 10 52 22
71 28 60 18 143 51 154 62 5 5 18 10 28 10 38 0 211 118 267 183 23 26 99 77
116 77 47 0 203 107 278 191 27 30 70 76 95 103 26 27 40 45 32 40 -8 -4 2 14
22 41 59 77 89 135 103 195 13 54 13 54 -6 30 -10 -14 -19 -19 -19 -12 0 20
-20 14 -20 -7 0 -14 -5 -18 -20 -14 -11 3 -17 10 -13 16 4 6 1 7 -7 2 -7 -4
-16 -2 -21 6 -6 10 -9 10 -9 2 0 -7 9 -17 20 -23 11 -6 25 -20 31 -32 10 -18
9 -20 -5 -15 -9 4 -16 2 -16 -3 0 -5 -8 -11 -19 -15 -13 -4 -17 -12 -13 -32 4
-23 2 -25 -17 -20 -17 4 -24 0 -31 -16 -6 -15 -9 -17 -11 -7 -1 8 0 20 1 25 7
26 5 75 -2 75 -5 0 -4 9 2 20 7 12 16 18 23 13 9 -5 9 -3 1 8 -14 17 -24 79
-13 79 4 0 5 9 2 20 -3 11 -9 17 -14 14 -11 -7 -3 91 10 115 6 10 8 21 5 24
-3 3 -1 15 6 26 6 12 7 21 2 21 -5 0 -9 7 -9 15 0 8 3 15 7 15 12 0 -8 114
-29 171 -22 59 -84 139 -96 127 -5 -4 4 -25 19 -46 14 -21 26 -43 26 -50 0 -7
3 -12 8 -12 13 0 32 -78 32 -132 0 -55 -24 -273 -29 -273 -1 0 -4 -20 -7 -45
-6 -67 -14 -131 -20 -165 -3 -16 -5 -46 -5 -65 1 -39 -17 -74 -26 -52 -7 18
-23 14 -16 -5 4 -10 2 -14 -4 -10 -7 5 -9 0 -6 -14 5 -17 2 -20 -13 -17 -11 2
-18 11 -16 20 1 9 -1 19 -6 22 -5 3 -7 -5 -6 -17 1 -12 3 -22 4 -22 2 0 4 -10
5 -23 1 -12 -2 -22 -6 -22 -5 0 -9 -8 -9 -17 0 -28 -19 6 -21 37 -1 23 -2 23
-9 -5 -5 -20 -8 -24 -9 -10 -1 16 -3 17 -10 5 -6 -8 -7 -18 -5 -22 14 -22 -10
-24 -32 -3 -15 14 -30 22 -34 20 -5 -3 -11 1 -13 7 -3 8 -6 6 -6 -4 -1 -10 -6
-18 -12 -18 -5 0 -7 -5 -4 -10 3 -6 -1 -13 -9 -16 -11 -4 -13 -12 -7 -27 30
-82 15 -107 -19 -31 -22 52 -25 74 -9 74 6 0 8 7 5 16 -4 10 3 24 16 36 13 11
17 17 11 13 -13 -6 -63 40 -63 57 0 5 -4 6 -10 3 -5 -3 -7 0 -4 8 3 8 1 18 -5
22 -6 3 -11 22 -11 41 0 24 4 33 12 28 8 -5 9 -2 5 9 -9 23 14 22 58 -3 22
-12 35 -15 35 -8 0 7 5 5 12 -4 24 -29 64 -31 94 -3 20 19 23 25 10 25 -9 0
-16 4 -16 10 0 5 3 9 8 9 21 -4 24 3 6 17 -16 13 -16 15 -1 10 9 -3 17 -1 17
5 0 6 7 6 20 -1 20 -11 30 3 10 15 -5 3 -10 11 -10 17 0 6 9 3 20 -7 18 -17
19 -16 26 10 4 17 2 30 -5 35 -12 7 -6 56 8 65 11 6 9 -29 -2 -36 -5 -4 -5 -9
2 -13 6 -4 11 -2 11 3 0 6 7 11 15 11 17 0 20 16 4 25 -6 5 -4 12 8 21 17 14
17 15 -4 9 -14 -4 -23 -2 -23 4 0 6 12 11 26 11 23 0 25 3 20 25 -4 16 -2 25
5 25 6 0 9 7 5 15 -3 8 -2 15 3 15 4 0 8 12 7 27 -1 28 -6 30 -38 18 -19 -8
-25 9 -8 20 5 3 10 23 10 44 0 24 7 45 21 60 13 14 18 28 14 39 -5 14 -9 12
-21 -13 -9 -21 -13 -24 -12 -10 2 30 -12 85 -23 85 -5 0 -9 5 -9 11 0 6 -9 24
-21 40 -11 16 -18 29 -15 29 3 0 -9 15 -27 32 -29 29 -112 77 -142 84 -5 1
-26 9 -45 17 -32 14 -33 15 -10 16 14 0 41 -6 60 -12 19 -7 46 -10 60 -7 23 5
22 7 -20 25 -39 17 -69 20 -235 20 l-190 0 -67 -32 c-38 -17 -91 -34 -119 -38
-28 -4 -63 -13 -77 -21 -58 -30 -68 -10 -22 43 17 18 30 40 30 48 0 8 32 71
71 141 65 116 103 207 116 274 2 14 8 75 13 135 4 61 17 164 29 230 29 169 32
188 33 205 1 8 8 21 16 29 14 15 12 35 -9 88 -10 24 -10 37 -2 55 7 13 15 39
18 58 4 19 18 54 31 76 20 35 21 43 9 48 -19 7 -19 30 -1 59 12 18 12 40 3
125 -7 72 -7 109 0 121 6 10 7 25 2 39 -5 13 -9 96 -9 185 -1 146 2 179 33
332 19 94 46 199 60 234 18 46 23 69 17 82 -11 20 -7 150 5 169 4 7 9 47 10
89 1 42 8 103 15 136 14 65 16 106 6 145 -5 17 0 36 16 60 18 28 22 52 24 125
2 50 -1 104 -7 120 -5 17 -11 69 -13 115 -6 158 -25 271 -57 338 -16 34 -29
70 -29 80 0 10 -5 23 -12 30 -9 9 -7 17 10 35 26 27 27 40 7 57 -20 17 -19 37
5 67 26 33 25 40 -5 47 -31 8 -31 17 0 54 l25 30 -21 41 c-14 27 -20 53 -16
74 2 17 -1 40 -7 49 -8 13 -7 24 6 45 17 31 21 108 6 136 -7 13 -13 15 -28 7
-29 -16 -37 -12 -37 16 -1 14 2 21 6 16 4 -6 12 -7 20 -3 10 7 9 11 -5 22 -27
20 -57 77 -51 99 2 10 1 23 -3 30 -4 7 -4 26 0 42 5 17 5 26 -1 23 -5 -4 -9
-2 -9 4 0 5 5 11 11 13 5 2 13 22 16 46 6 43 19 62 50 67 20 3 19 24 -3 41
-11 9 -13 30 -9 100 13 213 13 215 55 276 30 43 35 58 24 62 -8 3 -20 17 -26
32 -11 23 -10 28 10 44 26 21 29 48 6 57 -8 3 -13 12 -9 21 3 8 10 47 15 85
10 69 30 107 55 107 19 0 26 29 14 52 -13 24 -5 48 17 48 13 0 15 5 9 23 -5
12 -10 81 -12 154 -4 121 -2 141 26 252 16 67 40 135 52 153 14 19 21 42 20
62 -7 76 -2 114 16 151 14 27 18 47 12 60 -12 31 -10 96 5 146 8 25 20 91 27
145 6 54 18 109 26 120 8 13 11 32 8 47 -5 18 0 34 15 55 13 17 20 38 17 46
-15 39 44 385 92 540 17 54 31 107 31 117 0 11 8 26 19 35 18 16 18 17 1 34
-17 17 -16 23 5 128 14 67 34 128 49 155 15 24 24 51 20 60 -3 8 2 29 10 46 9
16 16 45 16 63 -1 18 1 59 2 91 2 32 0 61 -5 64 -15 9 3 145 23 181 23 38 46
116 55 185 4 29 14 55 26 65 10 9 19 27 19 41 0 13 7 33 16 42 14 16 15 23 4
49 -7 17 -14 43 -16 58 -4 35 17 105 28 94 5 -5 4 -21 -2 -37 -9 -22 -8 -26 2
-17 7 5 24 12 37 14 14 1 26 9 29 17 3 9 -2 11 -17 6 -44 -14 -47 81 -5 182 8
18 18 60 22 92 8 53 6 60 -9 64 -10 3 -20 0 -23 -7 -2 -6 -5 -3 -5 8 -1 12 4
16 15 12 12 -5 14 -1 9 17 l-6 22 19 -24 19 -23 17 37 c15 31 16 42 6 64 -11
23 -9 28 19 53 18 16 35 38 40 51 8 21 7 22 -25 19 -60 -7 -81 28 -44 75 11
14 20 34 20 44 0 24 35 42 66 35 27 -7 28 -4 12 40 -10 27 -8 35 11 63 19 26
25 29 43 20 26 -14 33 -6 17 19 -11 17 -8 25 23 63 19 24 52 71 72 103 21 32
59 82 85 110 26 28 57 65 69 83 l22 32 -22 4 c-22 4 -22 4 -2 6 25 1 124 102
124 126 0 9 -8 28 -17 42 -13 19 -14 28 -5 31 6 2 12 12 12 23 0 10 4 19 10
19 5 0 8 -13 6 -29 -2 -16 0 -34 3 -40 9 -14 102 224 95 242 -3 8 -1 18 5 22
7 4 9 -1 6 -12 -3 -10 4 2 16 27 21 44 79 259 79 293 0 9 -4 17 -10 17 -10 0
-5 45 11 95 6 17 13 59 15 95 3 36 10 80 16 97 5 18 7 37 3 43 -3 6 1 13 9 16
9 3 13 10 10 15 -2 5 2 21 10 36 13 25 15 25 16 7 0 -11 -3 -24 -7 -28 -11
-10 -15 -56 -5 -56 14 0 31 103 19 118 -7 9 -7 16 1 24 7 7 12 29 12 49 0 47
10 99 20 99 4 0 6 -30 4 -67 -4 -56 -2 -63 7 -43 6 14 8 47 4 75 -17 147 -17
166 -1 178 12 9 19 35 23 85 4 55 10 75 23 82 10 5 20 21 22 34 3 15 1 23 -5
19 -10 -6 1 38 12 47 10 8 6 63 -6 85 -11 20 -1 94 26 192 6 23 11 61 11 85
-1 75 0 88 9 88 11 0 1 43 -12 51 -14 10 -21 97 -10 122 14 30 45 137 49 166
1 14 -2 33 -7 43 -7 12 -6 18 1 18 6 0 9 4 5 9 -3 5 -1 12 5 16 6 4 8 10 5 15
-3 4 2 24 10 44 8 19 15 50 15 69 0 18 9 57 19 87 11 30 18 62 16 72 -2 10 -1
18 4 18 4 0 5 16 3 36 -4 29 -2 35 9 29 11 -6 11 -5 2 5 -6 7 -9 27 -6 46 3
19 1 34 -4 34 -12 0 -11 63 1 71 12 10 6 161 -9 208 -7 24 2 61 16 61 5 0 9
-9 9 -20 0 -11 4 -20 9 -20 22 0 29 78 9 98 -9 9 -9 12 0 12 18 0 15 27 -4 34
-8 3 -12 10 -9 16 4 6 11 8 16 4 11 -6 -11 37 -23 46 -3 3 -8 19 -12 35 -9 52
-18 75 -28 75 -6 0 -6 6 1 14 16 19 21 134 8 164 -6 13 -16 21 -24 18 -16 -6
-17 6 -2 21 5 5 13 36 16 67 3 31 9 56 12 56 6 0 11 40 11 100 0 36 -17 90
-29 90 -8 0 -10 14 -14 93 -2 49 1 61 16 69 18 9 18 11 1 29 -16 18 -16 19 1
19 13 0 16 6 13 25 -3 14 -1 28 4 31 6 4 5 10 -2 14 -8 5 -10 15 -5 26 11 26
16 54 17 87 1 15 5 27 9 27 5 0 5 7 2 17 -4 11 -3 14 6 9 8 -6 11 8 10 51 -2
32 1 68 5 81 5 14 1 34 -9 55 -9 17 -25 58 -35 90 -10 32 -35 82 -55 111 -20
30 -38 66 -38 80 -1 14 -6 26 -11 26 -4 0 -6 15 -2 33 13 69 13 88 -1 83 -7
-3 -13 1 -13 9 0 8 5 15 10 15 16 0 12 67 -5 74 -21 8 -19 26 3 26 16 1 16 2
-1 14 -17 13 -17 14 -1 18 16 3 29 48 15 48 -15 0 -30 63 -20 82 7 14 7 24 -2
34 -10 12 -10 17 0 23 9 6 8 11 -3 21 -9 7 -13 16 -10 21 9 15 32 -16 38 -52
3 -19 12 -53 20 -76 8 -22 13 -43 11 -45 -6 -6 22 -102 31 -105 10 -3 9 75 -2
152 -4 28 -7 60 -7 73 -1 12 -7 22 -14 22 -7 0 -13 12 -14 28 0 15 -3 36 -5
47 -3 11 -6 27 -6 35 -1 8 -11 22 -22 32 -19 15 -20 17 -3 23 9 4 17 11 17 16
0 4 -7 6 -15 3 -11 -4 -15 0 -15 16 0 14 5 20 13 17 14 -5 22 80 8 97 -5 6 -9
26 -9 44 0 18 -6 39 -12 47 -8 10 -8 14 2 18 10 3 8 10 -6 26 -19 20 -19 21 0
21 17 0 17 1 -3 15 -19 14 -21 19 -11 47 8 22 8 36 0 49 -9 14 -8 19 6 24 14
5 14 7 2 15 -8 6 -10 10 -5 10 6 0 5 3 -1 8 -14 9 -28 52 -17 52 5 0 9 20 9
45 0 28 -3 40 -9 32 -6 -8 -7 -4 -4 11 3 12 1 22 -4 22 -5 0 -9 11 -9 25 0 18
5 25 20 25 11 0 20 4 20 10 0 5 -7 7 -15 4 -14 -6 -20 7 -16 30 1 5 -4 13 -11
17 -10 7 -10 9 0 9 6 0 12 9 12 19 0 11 -6 22 -12 25 -10 5 -10 7 -1 12 7 3 9
12 6 20 -3 7 -9 11 -14 8 -5 -3 -9 -1 -9 5 0 5 5 11 11 13 9 3 9 10 -1 27 -6
13 -7 21 -2 17 6 -3 13 -2 17 4 3 5 -1 10 -10 10 -11 0 -14 6 -9 24 4 19 0 27
-16 36 -16 8 -19 15 -11 23 7 7 5 14 -7 23 -14 10 -12 11 13 7 23 -3 27 -2 15
6 -8 6 -24 11 -35 12 -15 0 -16 2 -5 6 8 3 18 10 21 15 7 11 -12 58 -24 58 -5
0 -6 4 -3 9 3 5 16 7 29 5 12 -2 16 -2 10 2 -7 3 -13 11 -13 19 0 7 -7 19 -16
26 -15 12 -14 14 7 20 23 7 23 7 -3 8 -18 1 -28 6 -28 17 0 11 -6 14 -21 9
-15 -5 -19 -4 -15 4 4 6 15 11 24 11 13 0 14 2 4 9 -10 6 -6 10 15 15 27 7 27
8 9 21 -10 8 -22 13 -25 10 -4 -2 -8 8 -9 22 -1 15 1 23 5 19 5 -4 8 -12 8
-17 0 -5 5 -9 10 -9 13 0 14 28 3 59 -6 16 -5 27 2 31 7 5 6 11 -5 20 -8 7
-15 9 -15 4 0 -5 -4 -2 -10 6 -5 9 -5 19 1 26 7 9 4 19 -10 33 -20 20 -20 21
-2 21 17 0 18 3 8 24 -7 13 -15 22 -19 20 -15 -9 -18 17 -4 32 9 8 16 22 16
30 0 8 5 12 10 9 16 -10 12 5 -10 32 -18 23 -25 23 -21 -1 1 -5 -6 -6 -15 -2
-9 3 -24 1 -33 -5 -9 -7 2 4 24 24 22 20 35 36 28 37 -6 0 -19 -7 -28 -17 -14
-14 -18 -14 -26 -2 -5 8 -9 19 -9 24 0 6 5 3 10 -5 8 -12 12 -13 19 -2 4 8 12
13 17 13 10 -1 10 7 -1 67 -4 23 -10 42 -14 43 -34 4 -57 11 -59 19 -2 6 -8 8
-12 5 -8 -5 -50 28 -50 39 0 2 9 6 21 9 15 4 19 2 15 -8 -5 -14 30 -32 41 -21
4 3 -1 6 -10 6 -10 0 -17 8 -17 20 0 11 5 20 11 20 5 0 7 -5 3 -11 -4 -7 -1
-10 6 -7 8 2 15 9 17 15 6 16 -37 27 -50 14 -20 -20 -55 -13 -59 12 -2 12 -9
21 -15 20 -6 -2 -11 6 -10 17 1 13 6 19 15 15 7 -2 10 0 7 5 -3 6 1 10 9 10
10 0 13 6 10 15 -4 8 -15 15 -26 15 -10 0 -16 -4 -13 -10 3 -6 -1 -7 -10 -4
-13 5 -13 9 -3 22 11 13 11 14 -1 7 -11 -6 -13 -3 -7 19 4 18 3 25 -6 24 -9
-2 -12 8 -10 30 2 27 -1 32 -19 32 -19 0 -21 4 -15 40 6 36 4 40 -19 46 -28 7
-30 15 -14 46 8 15 8 22 -1 28 -9 6 -9 12 1 28 7 12 10 25 6 29 -5 4 -12 1
-17 -6 -5 -8 -15 -11 -25 -7 -16 6 -16 4 -4 -11 13 -16 12 -17 -3 -4 -10 7
-18 21 -18 31 0 26 -12 32 -26 12 -12 -16 -13 -15 -14 6 0 12 -4 22 -10 22 -5
0 -10 9 -10 20 0 11 5 20 11 20 5 0 8 -4 4 -9 -3 -5 0 -13 6 -17 8 -4 9 -3 5
4 -12 20 6 13 25 -10 l19 -21 0 21 c0 12 -6 21 -12 19 -8 -1 -12 6 -10 16 3
15 -2 17 -30 12 -18 -4 -37 -10 -42 -16 -15 -14 -26 -11 -20 5 3 8 15 17 27
21 18 6 19 8 5 12 -10 2 -15 10 -11 19 4 10 0 12 -11 8 -9 -3 -16 -1 -16 4 0
6 -8 13 -18 16 -10 4 -36 22 -57 40 -21 19 -50 40 -64 48 -14 7 -29 17 -33 22
-3 5 -14 11 -23 12 -9 1 -27 14 -41 29 -13 15 -30 25 -37 22 -15 -5 -37 17
-37 37 0 19 -16 21 -23 4 -2 -8 -8 -9 -13 -4 -5 5 -4 11 4 13 10 4 10 8 1 19
-6 7 -9 21 -5 29 3 8 1 15 -5 15 -6 0 -8 4 -4 9 5 9 -31 41 -46 41 -4 0 -9 -9
-12 -20 -6 -23 3 -26 23 -7 8 6 11 8 7 3 -4 -5 -3 -14 2 -20 4 -6 11 -22 14
-36 6 -23 5 -24 -8 -6 -8 10 -12 23 -9 27 3 5 -4 9 -15 9 -10 0 -22 -6 -25
-12 -4 -7 -4 1 -2 17 5 36 -17 66 -59 80 -22 8 -34 22 -47 55 -11 31 -17 38
-17 23 -1 -13 -3 -23 -6 -23 -14 0 -62 27 -77 43 -9 10 -21 16 -27 13 -5 -3
-12 8 -16 25 -5 24 -11 30 -26 26 -11 -3 -23 1 -27 10 -5 8 -12 14 -15 14 -19
-3 -21 0 -7 9 13 8 12 10 -3 10 -9 0 -26 6 -37 13 -17 10 -22 9 -29 -2 -7 -10
-10 -11 -16 0 -5 8 1 20 18 34 17 13 27 30 26 45 0 14 -3 19 -6 13 -8 -21 -26
-14 -20 7 4 17 2 20 -14 15 -14 -5 -17 -3 -13 9 4 11 1 16 -10 16 -9 0 -16 5
-16 10 0 6 -7 10 -15 10 -9 0 -18 7 -22 16 -4 11 -13 14 -29 10 -16 -4 -23 -2
-22 5 2 6 -3 14 -11 17 -9 3 -11 0 -6 -9 5 -8 -3 -4 -17 9 -13 12 -32 22 -41
22 -9 0 -17 5 -17 11 0 6 -9 8 -22 4 -16 -4 -19 -3 -9 3 15 11 8 16 -32 26
-16 4 -25 11 -21 17 4 7 -1 9 -14 5 -15 -5 -22 -2 -27 14 -5 17 -10 19 -21 9
-11 -9 -14 -8 -14 5 0 9 -4 16 -10 16 -5 0 -10 -4 -10 -10 0 -5 -7 -7 -15 -4
-8 4 -15 12 -15 19 0 12 -27 26 -77 40 -13 3 -23 11 -23 16 0 5 -8 9 -17 9
-15 0 -16 2 -3 10 12 7 8 10 -15 10 -23 0 -27 -3 -15 -10 32 -21 -7 -9 -44 14
-24 14 -34 26 -27 30 6 4 11 2 11 -5 0 -10 3 -10 11 -2 13 13 3 36 -12 28 -15
-10 -10 12 6 25 12 10 15 10 15 -4 0 -14 3 -14 19 -4 15 9 17 15 9 25 -14 18
-47 16 -54 -2 -4 -8 -11 -15 -17 -15 -5 0 -2 9 8 20 10 11 25 20 34 20 14 0
14 2 1 9 -8 6 -18 7 -22 5 -5 -3 -7 0 -6 8 2 8 -4 12 -14 10 -11 -2 -18 3 -18
13 0 8 -5 15 -11 15 -18 0 11 30 30 31 9 0 -22 13 -69 29 -47 15 -79 28 -72
29 7 1 10 6 7 11 -4 6 -10 8 -15 5 -5 -3 -18 3 -30 15 -18 18 -39 25 -62 21
-5 0 -8 4 -8 9 0 5 -3 10 -7 9 -16 -2 -53 14 -53 23 0 5 5 6 10 3 6 -3 10 -1
10 5 0 7 -8 9 -20 5 -16 -5 -20 -2 -20 14 0 18 3 19 26 11 31 -12 34 -12 34
-2 0 9 -98 60 -200 104 -30 14 -69 30 -86 38 -28 12 -29 15 -15 29 21 21 101
52 114 44 6 -3 7 -1 3 5 -3 6 2 13 11 15 17 4 17 5 1 6 -10 0 -18 5 -18 11 0
5 8 6 18 3 15 -6 15 -5 3 10 -17 21 2 23 23 2 18 -19 27 -19 20 -1 -3 7 9 27
25 44 17 17 31 28 31 26 0 -14 166 114 214 165 17 17 26 31 20 32 -5 0 1 4 14
10 13 5 21 13 17 19 -4 6 -16 3 -32 -7 -29 -20 -63 -24 -79 -12 -8 6 -13 3
-17 -11 -6 -24 -25 -27 -23 -4 0 9 -6 19 -14 21 -13 4 -13 3 0 -6 12 -8 7 -11
-20 -11 -26 0 -31 3 -20 10 17 11 5 13 -65 11 -31 -1 -36 1 -25 9 11 7 4 9
-27 5 -39 -4 -43 -3 -43 18 0 16 -3 18 -9 8 -5 -8 -14 -10 -22 -6 -9 6 -11 4
-6 -8 4 -11 2 -14 -9 -10 -7 3 -14 9 -14 15 0 5 -6 8 -12 7 -38 -5 -58 2 -58
20 0 10 -6 21 -14 24 -9 4 -12 0 -9 -12 2 -10 -3 -23 -11 -30 -14 -12 -16 -10
-16 16 0 16 5 34 12 41 9 9 9 15 1 23 -8 8 -13 0 -18 -30 -6 -37 -25 -68 -25
-41 0 6 -5 8 -12 4 -8 -5 -9 0 -5 17 l6 24 -19 -24 c-17 -19 -21 -21 -26 -7
-7 17 -34 22 -34 6 0 -5 -4 -10 -10 -10 -5 0 -10 12 -10 26 0 19 -4 25 -15 20
-10 -4 -15 1 -15 14 0 23 10 26 28 8 10 -10 14 -10 21 0 11 18 67 12 63 -6 -1
-8 2 -11 9 -6 6 3 16 0 21 -7 8 -11 9 -11 5 3 -6 18 23 30 44 18 7 -5 36 -7
66 -5 30 2 51 -1 47 -6 -3 -5 -1 -9 5 -9 5 0 14 6 18 14 4 8 15 14 23 14 50
-3 60 2 56 27 -9 51 -18 65 -38 65 -14 0 -18 5 -14 15 4 13 2 13 -14 5 -20
-11 -36 2 -25 20 3 6 1 10 -4 10 -6 0 -11 -4 -11 -10 0 -5 -5 -10 -11 -10 -5
0 -8 4 -4 9 3 5 0 13 -6 17 -8 4 -7 9 2 16 11 8 11 9 1 6 -8 -2 -13 -7 -12
-12 2 -9 -19 -26 -32 -26 -4 0 -5 17 -2 38 l5 37 -16 -27 c-18 -32 -42 -40
-26 -9 6 10 7 21 4 25 -3 3 -1 6 5 6 7 0 12 5 12 10 0 6 -13 10 -30 10 -24 0
-29 -4 -27 -21 1 -12 -3 -24 -9 -26 -7 -2 -9 8 -6 27 2 16 9 31 16 31 42 5 76
3 76 -4 0 -4 11 -5 25 -1 17 4 25 2 25 -7 0 -12 2 -12 9 0 5 8 16 11 26 8 9
-4 13 -12 9 -18 -4 -8 0 -8 15 0 24 13 29 26 6 17 -8 -3 -15 -1 -15 4 0 14 32
12 53 -4 9 -7 17 -18 17 -25 0 -15 13 -14 29 2 10 10 12 8 9 -8 -4 -25 28 -33
34 -8 7 25 -6 61 -16 45 -4 -7 -17 -12 -29 -11 -21 0 -21 1 -2 9 11 5 17 9 13
9 -4 1 6 14 22 30 26 25 31 37 32 82 1 39 -5 64 -20 89 -35 56 -46 80 -40 85
3 3 27 1 54 -5 52 -12 66 -14 154 -25 30 -4 62 -9 70 -12 18 -7 29 -9 53 -11
10 -1 15 -6 12 -12 -7 -12 5 -13 21 -2 15 11 67 82 60 82 -4 0 4 15 17 33 13
17 33 57 43 87 10 30 22 57 27 58 4 2 7 12 7 23 0 26 16 24 43 -7 12 -15 28
-32 35 -40 6 -7 12 -19 12 -26 1 -23 39 -98 50 -98 19 0 80 69 80 91 0 11 5
17 10 14 6 -3 10 -2 10 4 0 5 -4 13 -10 16 -16 10 -12 45 4 39 9 -3 12 -12 9
-21 -4 -11 -2 -14 5 -9 7 4 12 21 12 37 0 18 4 28 10 24 6 -3 10 -1 10 5 0 6
-7 13 -15 16 -21 8 -19 22 3 20 9 0 17 6 17 14 0 8 4 20 8 27 4 6 3 15 -3 18
-6 4 -1 14 12 26 14 11 19 22 13 26 -12 10 -16 43 -5 43 5 0 10 -5 12 -11 3
-8 10 -5 22 6 13 13 14 20 6 25 -7 4 -12 26 -12 49 0 22 -3 41 -9 41 -5 0 -9
4 -9 10 0 5 8 6 18 3 15 -6 15 -5 3 11 -11 13 -11 20 -3 28 17 17 15 24 -8 25
-16 1 -19 -3 -14 -22 4 -16 1 -23 -8 -22 -34 1 -47 -5 -53 -23 -3 -11 -17 -23
-30 -26 -15 -4 -32 -22 -45 -47 -45 -88 -54 -101 -111 -158 l-58 -59 -53 5
c-29 3 -75 7 -103 9 -59 5 -122 23 -131 37 -3 6 -19 7 -35 4 -18 -4 -29 -3
-29 4 0 6 -9 11 -20 11 -13 0 -20 7 -20 19 0 14 12 22 45 30 30 8 43 15 39 23
-5 7 -2 9 8 5 11 -4 18 1 21 14 3 10 12 19 21 19 9 0 16 4 16 9 0 5 12 11 28
13 15 3 35 9 45 13 12 5 17 3 17 -9 0 -9 -6 -16 -14 -14 -8 2 -22 -6 -33 -18
-10 -11 -35 -28 -55 -37 -38 -18 -52 -47 -23 -47 8 0 15 -5 15 -11 0 -6 9 -9
20 -6 11 3 20 2 20 -2 0 -14 215 -3 253 12 43 19 49 31 10 23 -62 -12 -124
-15 -118 -6 4 7 -3 7 -19 0 -14 -5 -26 -6 -26 -2 0 4 -12 8 -26 8 -14 1 -27 4
-30 7 -9 8 8 37 22 37 8 0 14 6 14 13 0 6 14 21 30 32 16 11 30 23 30 27 0 4
28 36 63 72 64 65 94 106 78 106 -5 0 -11 -7 -15 -15 -6 -17 -26 -20 -26 -5 0
6 16 27 35 47 19 20 34 38 32 40 -2 2 -20 -4 -40 -12 -20 -8 -38 -15 -41 -15
-2 0 3 28 11 63 8 34 19 77 23 95 10 39 -2 42 -19 5 -8 -16 -17 -36 -22 -45
-5 -10 -9 -23 -9 -30 0 -7 -7 -22 -16 -33 -13 -17 -16 -18 -25 -5 -7 10 -12
11 -15 3 -5 -12 -71 1 -89 18 -5 5 -18 9 -30 10 -19 0 -19 1 -1 8 14 5 16 10
7 15 -6 4 -9 16 -6 27 4 10 2 19 -4 19 -5 0 -9 8 -8 19 1 16 5 17 24 8 12 -5
20 -13 18 -17 -4 -7 17 -20 30 -20 2 0 0 14 -5 30 -5 19 -5 28 1 25 5 -4 16
-2 25 3 13 7 14 11 2 23 -16 18 -20 49 -4 46 6 -1 10 4 8 11 -1 6 2 12 8 12 5
0 10 -4 10 -9 0 -5 8 -11 19 -14 14 -3 17 0 14 13 -3 10 1 21 8 25 7 5 10 4 6
-2 -8 -13 15 -23 55 -23 29 0 30 -1 24 -40 -3 -22 -1 -40 4 -40 5 0 10 15 12
32 2 26 9 35 33 43 17 5 36 16 43 22 7 7 20 13 28 13 8 0 14 4 14 9 0 5 9 13
21 16 21 7 21 26 -1 33 -7 3 -10 0 -6 -6 3 -6 -3 -13 -14 -17 -11 -3 -20 -11
-20 -16 0 -5 -7 -9 -15 -9 -8 0 -15 5 -15 10 0 6 -4 10 -10 10 -5 0 -10 -7
-10 -15 0 -23 -72 -20 -94 4 -16 18 -13 51 6 51 5 0 8 8 6 18 -2 12 3 16 18
15 15 -2 21 3 20 14 -2 23 51 39 77 24 17 -11 18 -10 12 8 -5 16 -1 23 17 30
54 22 144 131 109 131 -6 0 -11 -7 -11 -15 0 -20 -36 -19 -44 1 -8 21 -8 26 3
20 5 -3 11 5 13 19 6 27 -9 35 -18 10 -6 -15 -34 -21 -34 -7 0 4 12 20 26 37
18 22 24 37 20 57 -3 16 0 31 8 37 18 15 27 49 15 57 -14 9 -10 24 7 24 8 0
12 5 9 10 -4 6 -10 8 -15 5 -4 -2 -10 6 -12 20 -4 18 -1 25 10 25 13 0 12 3
-4 14 -16 13 -17 17 -5 28 10 9 12 9 7 1 -4 -7 -2 -13 4 -13 7 0 9 7 6 16 -3
9 -6 17 -6 20 0 2 -7 1 -15 -2 -8 -4 -15 -1 -15 5 0 6 5 11 11 11 5 0 7 5 4
10 -3 6 -18 8 -33 4 -23 -4 -24 -4 -9 6 21 14 13 30 -14 30 -11 0 -18 -4 -15
-9 3 -4 -5 -6 -18 -4 -13 3 -27 0 -30 -6 -9 -14 -46 -14 -46 -1 0 6 7 13 15
16 8 4 15 11 15 17 0 6 8 19 17 29 13 15 14 21 4 31 -10 9 -12 9 -9 -3 2 -9
-6 -16 -21 -18 -13 -2 -26 -12 -29 -24 -4 -15 -10 -18 -31 -13 -14 4 -28 10
-31 15 -3 5 -12 5 -20 0 -10 -6 -20 -4 -32 7 -20 18 -25 59 -7 47 14 -8 70 55
68 76 -3 29 1 41 11 35 6 -3 10 -2 10 4 0 6 6 8 14 5 8 -3 17 -1 21 5 3 6 11
11 16 11 6 0 7 -5 3 -12 -4 -6 -3 -8 3 -5 17 10 21 66 7 78 -10 8 -12 6 -9 -8
2 -12 -2 -20 -10 -20 -7 0 -11 7 -8 14 4 10 0 13 -13 11 -13 -2 -19 3 -18 14
1 10 -1 16 -5 13 -4 -2 -13 11 -20 30 -7 19 -18 34 -24 32 -7 -1 -13 10 -15
26 -4 29 -11 34 -29 16 -17 -17 -63 -2 -63 20 0 16 -6 19 -29 16 -21 -3 -37 5
-65 31 -20 19 -36 38 -36 44 0 5 -8 7 -17 4 -17 -5 -17 -5 0 9 17 14 16 15 -8
21 -14 4 -31 4 -37 0 -6 -4 -8 -3 -5 3 3 5 -7 22 -24 37 -16 15 -29 34 -29 41
0 7 -10 16 -22 20 -14 4 -18 8 -10 12 18 7 15 21 -8 28 -16 5 -17 10 -10 31 8
20 7 24 -9 24 -11 0 -22 6 -24 13 -4 9 -6 9 -6 -1 -1 -7 -6 -10 -13 -6 -6 4
-8 3 -5 -3 4 -6 -2 -13 -13 -16 -13 -3 -20 0 -20 9 0 17 -36 19 -44 2 -3 -7
-4 -4 -3 7 2 14 9 19 25 18 12 -2 22 1 22 6 0 26 -15 41 -39 41 -20 0 -23 -2
-11 -10 8 -5 12 -12 8 -15 -3 -3 -20 9 -38 27 -43 42 -80 62 -80 43 0 -9 -6
-12 -17 -8 -13 5 -15 2 -10 -11 5 -12 3 -16 -5 -14 -7 3 -13 11 -13 19 0 9
-10 13 -28 12 -15 -1 -27 2 -27 8 0 16 -18 10 -22 -8 -3 -15 -4 -15 -20 1 -10
10 -18 13 -18 7 0 -6 -7 -8 -15 -5 -12 5 -13 10 -4 20 15 18 2 55 -17 47 -7
-3 -14 -9 -14 -15 0 -5 5 -6 10 -3 6 3 10 1 10 -4 0 -6 -4 -11 -9 -11 -5 0
-17 -3 -27 -7 -14 -5 -16 -3 -11 11 4 10 3 15 -3 11 -5 -3 -19 -1 -30 5 -14 7
-20 7 -20 0 0 -6 -10 -8 -24 -4 -16 4 -25 1 -30 -11 -6 -16 -8 -16 -32 -1 -26
18 -62 14 -76 -8 -5 -6 -8 -2 -8 12 0 26 -17 30 -23 5 -4 -14 -5 -13 -6 4 0
12 -6 25 -12 29 -9 5 -10 -3 -5 -30z m246 -44 c0 -15 -2 -15 -10 -2 -13 20
-13 33 0 25 6 -3 10 -14 10 -23z m-407 -17 c-3 -9 -8 -14 -10 -11 -3 3 -2 9 2
15 9 16 15 13 8 -4z m167 -4 c0 -6 -4 -13 -10 -16 -5 -3 -10 1 -10 9 0 9 5 16
10 16 6 0 10 -4 10 -9z m240 -22 c0 -11 -4 -18 -10 -14 -5 3 -7 12 -3 20 7 21
13 19 13 -6z m95 -5 c-9 -9 -19 -13 -23 -10 -3 4 0 11 8 16 24 15 33 11 15 -6z
m30 -14 c3 -5 1 -10 -4 -10 -6 0 -11 5 -11 10 0 6 2 10 4 10 3 0 8 -4 11 -10z
m200 0 c3 -5 2 -10 -4 -10 -5 0 -13 5 -16 10 -3 6 -2 10 4 10 5 0 13 -4 16
-10z m-225 -30 c0 -11 -4 -20 -10 -20 -5 0 -10 9 -10 20 0 11 5 20 10 20 6 0
10 -9 10 -20z m257 -12 c-3 -8 -6 -5 -6 6 -1 11 2 17 5 13 3 -3 4 -12 1 -19z
m126 -55 c-6 -16 -43 -18 -43 -2 0 6 7 8 16 5 11 -4 15 -2 11 8 -3 8 -3 17 1
20 9 9 21 -15 15 -31z m-73 12 c0 -8 5 -15 10 -15 6 0 10 -5 10 -10 0 -6 -11
-3 -24 7 -13 10 -22 21 -19 26 8 13 23 8 23 -8z m-1430 -85 c0 -5 -4 -10 -10
-10 -5 0 -10 5 -10 10 0 6 5 10 10 10 6 0 10 -4 10 -10z m420 -154 c0 -8 4
-16 8 -18 12 -4 94 -128 86 -128 -4 0 5 -12 20 -26 29 -30 34 -54 11 -54 -8 0
-15 5 -15 10 0 6 -4 10 -10 10 -5 0 -20 9 -32 20 -13 10 -31 25 -41 32 -10 7
-19 25 -21 38 -1 14 -5 32 -8 40 -12 29 -17 90 -7 90 5 0 9 -6 9 -14z m-431
-117 c-19 -12 -24 -2 -8 17 9 11 14 13 17 4 3 -7 -2 -16 -9 -21z m337 -29 c32
-11 64 -18 71 -16 7 3 13 2 14 -2 0 -4 2 -20 4 -37 3 -32 8 -50 19 -77 5 -10
6 -23 4 -29 -4 -12 -108 86 -135 128 -8 13 -22 23 -29 23 -8 0 -14 7 -14 15 0
19 -5 19 66 -5z m1541 -12 c-3 -7 -5 -2 -5 12 0 14 2 19 5 13 2 -7 2 -19 0
-25z m-1392 -68 c4 -12 15 -20 28 -20 28 -1 57 -23 57 -44 0 -9 7 -28 16 -41
10 -15 13 -32 9 -45 -6 -19 -4 -21 13 -16 14 5 21 1 25 -11 3 -10 16 -33 28
-52 l23 -33 -24 7 c-22 7 -111 66 -137 92 -13 12 -18 33 -8 33 3 0 16 -7 29
-16 16 -10 26 -12 31 -5 3 6 0 11 -8 11 -8 0 -22 9 -32 20 -10 11 -24 20 -32
20 -7 0 -13 9 -13 19 0 11 -4 22 -9 25 -11 7 -20 76 -10 76 4 0 11 -9 14 -20z
m151 -94 c8 -20 58 -30 83 -17 14 8 22 8 27 -1 4 -6 3 -8 -3 -5 -5 3 -20 -4
-34 -16 -39 -35 -70 -27 -87 23 -11 30 3 45 14 16z m1249 -8 c4 -4 13 -4 21
-1 9 3 14 -2 14 -14 0 -26 -19 -43 -47 -43 -14 0 -23 -6 -23 -15 0 -19 -4 -19
-40 0 -17 9 -30 12 -30 8 0 -5 -7 0 -15 11 -7 10 -18 15 -24 12 -13 -9 -22 9
-15 29 5 11 14 15 30 11 12 -3 25 -3 27 1 6 10 93 10 102 1z m-1715 -18 c0 -5
-8 -10 -17 -10 -15 0 -16 2 -3 10 19 12 20 12 20 0z m-114 -25 c-14 -14 -16
-14 -16 -2 0 9 6 17 13 20 19 7 21 -1 3 -18z m1584 5 c0 -12 -7 -20 -16 -20
-10 0 -32 -16 -51 -35 -24 -24 -39 -33 -46 -27 -7 5 -24 8 -39 6 -16 -1 -28 1
-28 6 0 5 -6 7 -13 4 -7 -2 -24 -1 -37 4 -21 8 -17 10 28 16 28 4 54 11 58 17
10 16 85 47 117 48 21 1 27 -4 27 -19z m-840 -40 c5 0 10 -9 10 -20 0 -10 7
-23 16 -28 9 -5 15 -15 12 -22 -3 -10 -8 -9 -20 4 -21 20 -28 20 -43 0 -9 -13
-16 -14 -33 -5 -31 16 -74 62 -67 70 4 3 27 13 53 22 45 15 47 15 54 -3 4 -10
12 -18 18 -18z m550 0 c0 -31 -7 -37 -48 -43 -13 -2 -27 -9 -32 -17 -10 -16
-30 -5 -30 17 0 13 -3 13 -15 3 -13 -11 -15 -8 -15 17 0 20 5 29 18 30 46 4
94 12 99 17 14 14 23 4 23 -24z m371 11 c13 -10 30 -16 37 -14 6 3 12 -1 12
-7 0 -7 6 -10 14 -7 8 3 16 -2 19 -14 3 -10 2 -19 -2 -19 -10 0 -58 -47 -63
-61 -3 -9 -15 -4 -40 14 -19 15 -38 24 -41 20 -4 -3 -7 -1 -7 6 0 8 -8 11 -20
8 -13 -3 -20 0 -20 9 0 8 5 14 10 14 6 0 10 7 10 16 0 8 4 13 9 10 4 -3 13 6
19 19 14 30 31 31 63 6z m-836 0 c3 -5 1 -12 -5 -16 -5 -3 -10 1 -10 9 0 18 6
21 15 7z m40 -21 c-2 -4 7 -13 20 -20 14 -7 25 -20 25 -29 0 -13 -2 -13 -9 -3
-7 11 -11 11 -24 -2 -22 -22 -36 -20 -30 4 3 11 10 20 16 20 6 0 7 3 4 6 -4 4
-13 2 -20 -5 -12 -9 -14 -7 -12 11 4 37 4 38 20 32 8 -4 13 -9 10 -14z m259
-5 c3 -8 1 -15 -4 -15 -6 0 -10 7 -10 15 0 8 2 15 4 15 2 0 6 -7 10 -15z m217
-29 c7 -9 56 -17 97 -17 21 1 22 -1 9 -19 -7 -11 -29 -30 -49 -43 -33 -23 -36
-24 -74 -9 -21 9 -47 23 -56 32 -17 15 -16 17 2 33 11 9 25 17 30 17 6 0 10 5
10 10 0 12 22 9 31 -4z m469 -12 c0 -8 6 -14 14 -14 8 0 17 -6 20 -12 5 -10 7
-10 12 0 3 6 11 9 17 5 7 -4 14 -8 17 -9 45 -14 49 -17 37 -28 -7 -7 -25 -11
-42 -11 -16 1 -43 -1 -60 -6 -16 -4 -48 -9 -70 -12 -35 -4 -41 -2 -41 14 0 11
5 19 11 19 5 0 16 9 23 20 7 11 20 20 30 20 15 0 15 2 2 10 -13 9 -13 11 0 19
17 12 30 5 30 -15z m-1590 -4 c0 -5 -2 -10 -4 -10 -3 0 -8 5 -11 10 -3 6 -1
10 4 10 6 0 11 -4 11 -10z m1294 -16 c4 -9 13 -14 21 -10 9 3 18 -1 21 -9 4
-8 10 -12 15 -9 5 3 12 -1 15 -9 3 -8 13 -13 23 -10 23 6 37 -25 16 -34 -9 -3
-24 -3 -35 0 -11 3 -18 1 -14 -4 3 -5 -19 -10 -48 -11 -29 0 -65 -2 -80 -3
-16 -1 -28 2 -28 7 0 17 32 58 41 52 5 -3 9 4 9 16 0 12 5 18 10 15 6 -3 10 1
10 9 0 21 16 20 24 0z m-294 -54 c0 -13 5 -18 15 -14 8 4 15 2 15 -4 0 -6 14
-13 30 -17 29 -6 37 -15 23 -28 -3 -4 -12 -2 -20 4 -9 9 -13 8 -13 0 0 -18
-22 -13 -47 11 -23 21 -32 68 -13 68 6 0 10 -9 10 -20z m-310 -40 c0 -5 -5
-10 -11 -10 -5 0 -7 5 -4 10 3 6 8 10 11 10 2 0 4 -4 4 -10z m-74 -34 c10 -8
17 -16 14 -19 -8 -8 -50 11 -50 23 0 14 13 13 36 -4z m-976 -20 c0 -11 -19
-15 -25 -6 -3 5 1 10 9 10 9 0 16 -2 16 -4z m-26 -51 c-4 -8 -8 -15 -10 -15
-2 0 -4 7 -4 15 0 8 4 15 10 15 5 0 7 -7 4 -15z m56 1 c0 -3 -4 -8 -10 -11 -5
-3 -10 -1 -10 4 0 6 5 11 10 11 6 0 10 -2 10 -4z m33 -40 c-3 -4 -9 -2 -14 5
-13 22 -11 31 5 17 8 -7 12 -17 9 -22z m-96 -18 c-3 -7 -5 -2 -5 12 0 14 2 19
5 13 2 -7 2 -19 0 -25z m-142 -97 c-6 -5 -25 10 -25 20 0 5 6 4 14 -3 8 -7 12
-15 11 -17z m2304 -20 c-13 -16 -30 -30 -37 -30 -17 -1 -48 -31 -32 -31 6 0
19 4 29 9 11 6 22 6 32 -1 11 -8 10 -9 -4 -4 -11 3 -16 2 -12 -4 3 -6 15 -10
26 -10 10 0 19 -4 19 -10 0 -6 -9 -6 -25 0 -14 5 -27 6 -30 0 -7 -11 -45 -9
-45 2 0 4 -5 8 -11 8 -5 0 -8 -4 -5 -9 11 -17 -25 -21 -48 -6 -22 14 -36 12
-36 -7 0 -5 4 -7 9 -4 5 3 11 -1 15 -9 7 -18 2 -19 -23 -3 -18 11 -18 12 1 47
29 52 42 62 36 29 -3 -16 -1 -28 3 -28 5 0 9 6 9 14 0 8 6 17 13 19 9 4 8 8
-3 17 -13 10 -13 11 3 6 11 -3 17 0 17 9 0 8 7 15 15 15 8 0 15 -4 15 -10 0
-5 -4 -10 -9 -10 -5 0 -7 -8 -4 -19 4 -16 8 -17 28 -7 14 6 20 13 15 14 -6 2
4 14 22 26 42 29 47 25 17 -13z m-1296 22 c-7 -2 -21 -2 -30 0 -10 3 -4 5 12
5 17 0 24 -2 18 -5z m-983 -17 c0 -3 -4 -8 -10 -11 -5 -3 -10 -1 -10 4 0 6 5
11 10 11 6 0 10 -2 10 -4z m2082 -41 c-8 -15 -10 -13 -14 14 -4 28 -3 30 10
18 10 -11 11 -20 4 -32z m-974 -2 c-10 -2 -26 -2 -35 0 -10 3 -2 5 17 5 19 0
27 -2 18 -5z m1002 3 c0 -3 -4 -8 -10 -11 -5 -3 -10 -1 -10 4 0 6 5 11 10 11
6 0 10 -2 10 -4z m-1053 -63 c-3 -10 -5 -4 -5 12 0 17 2 24 5 18 2 -7 2 -21 0
-30z m-1017 -13 c0 -5 -5 -10 -11 -10 -5 0 -7 5 -4 10 3 6 8 10 11 10 2 0 4
-4 4 -10z m-63 -52 c-3 -7 -5 -2 -5 12 0 14 2 19 5 13 2 -7 2 -19 0 -25z
m2093 12 c0 -5 -2 -10 -4 -10 -3 0 -8 5 -11 10 -3 6 -1 10 4 10 6 0 11 -4 11
-10z m-33 -52 c-3 -7 -5 -2 -5 12 0 14 2 19 5 13 2 -7 2 -19 0 -25z m-2407
-18 c0 -5 -5 -10 -11 -10 -5 0 -7 5 -4 10 3 6 8 10 11 10 2 0 4 -4 4 -10z
m955 -10 c3 -5 1 -10 -4 -10 -6 0 -11 5 -11 10 0 6 2 10 4 10 3 0 8 -4 11 -10z
m1432 -167 c-3 -10 -5 -4 -5 12 0 17 2 24 5 18 2 -7 2 -21 0 -30z m-1752 -173
c-3 -5 -1 -10 4 -10 6 0 11 -5 11 -11 0 -6 -8 -9 -18 -7 -12 4 -18 -1 -18 -13
0 -19 34 -18 46 2 5 7 10 4 15 -8 19 -44 13 -72 -11 -52 -12 10 -12 14 -2 21
10 7 10 9 -2 5 -9 -2 -14 -13 -12 -25 4 -31 -16 -37 -30 -8 -6 14 -15 26 -20
26 -4 0 -8 5 -8 10 0 6 -9 20 -20 32 -23 26 -22 28 20 33 18 3 35 7 38 10 9 9
14 6 7 -5z m1675 -80 c0 -5 -2 -10 -4 -10 -3 0 -8 5 -11 10 -3 6 -1 10 4 10 6
0 11 -4 11 -10z m40 -9 c0 -5 14 -9 31 -9 17 1 34 -4 39 -11 10 -17 11 -17 38
-2 21 11 23 11 20 -6 -2 -10 -11 -17 -21 -15 -12 2 -15 -2 -11 -15 3 -10 2
-14 -3 -8 -4 6 -18 16 -30 23 -21 11 -23 10 -23 -10 0 -19 -2 -20 -10 -8 -9
13 -11 13 -20 0 -9 -13 -10 -13 -10 1 0 8 6 21 13 28 10 10 7 10 -15 2 -19 -7
-28 -7 -28 0 0 6 -6 7 -12 3 -7 -4 -4 2 6 14 20 23 36 29 36 13z m-2437 -16
c-3 -9 -8 -14 -10 -11 -3 3 -2 9 2 15 9 16 15 13 8 -4z m827 5 c0 -5 -6 -10
-14 -10 -8 0 -18 5 -21 10 -3 6 3 10 14 10 12 0 21 -4 21 -10z m1550 -32 c0
-16 -3 -19 -11 -11 -6 6 -8 16 -5 22 11 17 16 13 16 -11z m-1576 -52 c-3 -6 2
-2 11 9 13 16 19 18 35 7 25 -15 33 -15 25 1 -4 6 3 2 14 -11 11 -13 26 -20
32 -17 8 5 9 1 4 -14 -6 -21 1 -26 33 -22 16 2 15 -7 -4 -27 -21 -20 -82 -27
-110 -11 -13 6 -25 22 -29 36 -3 13 -10 21 -15 18 -6 -3 -10 3 -10 15 0 12 -4
19 -9 15 -13 -8 -22 10 -15 30 6 15 8 15 25 -1 10 -9 16 -22 13 -28z m1837
-13 c-19 -34 -66 -80 -87 -87 -12 -4 -24 -17 -28 -29 -5 -21 -6 -21 -23 -3
-14 15 -15 19 -4 23 7 3 21 14 29 24 9 11 21 19 27 19 5 0 25 16 44 35 36 37
58 47 42 18z m-1687 -24 c-3 -5 -10 -7 -15 -3 -5 3 -7 10 -3 15 3 5 10 7 15 3
5 -3 7 -10 3 -15z m32 -46 c-11 -11 -17 4 -9 23 7 18 8 18 11 1 2 -10 1 -21
-2 -24z m1484 -7 c0 -2 -11 -6 -25 -8 -14 -3 -25 -1 -25 3 0 5 11 9 25 9 14 0
25 -2 25 -4z m-1357 -19 c8 12 64 8 82 -7 10 -8 15 -9 15 -1 0 6 9 11 20 11
11 0 20 -6 20 -14 0 -9 -19 -16 -60 -20 -33 -4 -60 -10 -60 -14 0 -11 -54 -11
-66 -1 -8 6 -14 4 -18 -6 -3 -8 -9 -15 -13 -14 -19 3 -33 -2 -33 -11 0 -5 6
-10 14 -10 8 0 18 -9 21 -20 3 -11 13 -20 21 -20 8 0 14 -9 14 -20 0 -11 7
-20 15 -20 8 0 19 -9 25 -20 6 -11 16 -17 22 -14 7 5 9 2 5 -8 -8 -22 3 -30
20 -16 11 9 15 7 20 -10 3 -12 9 -20 13 -17 5 3 15 -2 23 -10 9 -8 20 -15 26
-15 6 0 11 -7 11 -15 0 -8 9 -15 20 -15 11 0 20 -7 20 -16 0 -11 6 -14 20 -9
15 5 20 2 20 -12 0 -10 -4 -24 -9 -32 -7 -11 -10 -11 -17 1 -5 8 -17 17 -26
21 -10 3 -18 13 -18 21 0 9 -7 12 -20 9 -14 -4 -20 0 -20 12 0 12 -5 15 -20
10 -15 -5 -20 -2 -20 13 0 15 -5 19 -20 15 -14 -4 -20 0 -20 11 0 9 -4 16 -10
16 -5 0 -23 14 -38 30 -16 17 -34 30 -40 30 -5 0 -42 31 -82 70 -59 58 -70 73
-64 92 6 20 7 21 19 4 9 -12 14 -13 17 -4 2 6 21 13 41 15 26 1 36 -2 32 -10
-4 -7 0 -4 9 7 8 10 22 16 30 13 9 -4 18 -2 22 4 4 7 10 6 19 -1 7 -6 15 -7
18 -3z m1223 -12 c-11 -8 -25 -15 -30 -15 -6 1 0 7 14 15 32 19 40 18 16 0z
m57 -19 c-7 -12 -10 -12 -21 0 -11 12 -10 14 3 14 8 0 15 6 16 13 0 9 2 9 5 0
3 -7 2 -19 -3 -27z m-1863 20 c0 -3 -4 -8 -10 -11 -5 -3 -10 -1 -10 4 0 6 5
11 10 11 6 0 10 -2 10 -4z m92 -18 c15 -2 37 -17 50 -33 12 -16 35 -42 51 -58
15 -16 26 -34 24 -40 -4 -14 -48 -17 -64 -5 -7 5 -20 7 -30 4 -22 -7 -31 -1
-68 49 -16 22 -34 43 -41 47 -12 8 -8 48 5 48 4 0 13 -6 20 -12 10 -11 11 -9
5 7 -6 17 -5 18 7 8 8 -6 27 -13 41 -15z m240 -22 c9 -12 17 -26 18 -33 0 -6
9 -15 20 -18 11 -4 18 -10 15 -15 -3 -4 4 -10 15 -13 31 -8 25 -37 -7 -38 -89
-4 -115 -1 -133 16 -11 10 -20 23 -20 29 0 6 -14 22 -30 35 -17 13 -30 31 -30
41 0 16 7 18 40 15 22 -2 40 1 40 6 0 16 53 -3 72 -25z m708 9 c0 -8 -4 -15
-10 -15 -5 0 -10 7 -10 15 0 8 5 15 10 15 6 0 10 -7 10 -15z m-81 -11 c1 -1 0
-8 -4 -14 -5 -9 -10 -9 -18 -1 -14 14 -30 14 -22 1 7 -11 -10 -20 -47 -24 -13
-1 -29 -5 -35 -9 -5 -3 -28 -9 -49 -11 -21 -3 -40 -10 -42 -15 -2 -5 -9 -8
-17 -5 -20 8 -31 -17 -13 -30 19 -14 32 -52 20 -60 -5 -3 -18 3 -28 12 -30 27
-84 64 -84 57 0 -4 -7 0 -15 9 -24 23 -19 46 10 46 14 0 25 4 25 8 0 4 15 8
34 9 19 1 40 4 47 9 7 4 33 9 58 10 25 2 64 8 86 12 34 8 82 6 94 -4z m121 6
c0 -5 9 -10 20 -10 12 0 20 -7 20 -16 0 -14 3 -14 15 -4 12 10 15 10 15 -2 0
-8 8 -24 18 -35 13 -16 21 -18 35 -9 13 8 19 8 25 -1 4 -6 24 -14 45 -18 20
-4 37 -11 37 -15 0 -5 13 -11 30 -15 42 -9 46 -22 16 -50 -14 -13 -26 -19 -26
-13 0 6 -9 3 -20 -7 -19 -17 -20 -17 -27 1 -6 17 -8 16 -13 -6 -4 -14 -13 -24
-20 -22 -7 2 -21 -5 -31 -14 -18 -16 -20 -15 -18 3 0 4 -8 10 -18 14 -13 6 -9
8 14 8 21 1 37 8 45 21 7 11 18 20 25 20 7 0 13 7 13 15 0 8 -7 15 -15 15 -8
0 -15 4 -15 8 0 5 -18 15 -39 22 -21 7 -50 23 -65 36 -14 13 -32 24 -41 24 -9
0 -14 4 -11 9 7 11 -22 23 -35 15 -11 -6 -11 -2 -3 20 7 18 24 22 24 6z m1346
-27 c-10 -10 -19 5 -10 18 6 11 8 11 12 0 2 -7 1 -15 -2 -18z m-1056 -18 c0
-1 -11 -5 -25 -7 -16 -3 -25 -1 -25 7 0 8 9 10 25 7 14 -2 25 -6 25 -7z m390
5 c0 -6 -8 -14 -17 -17 -10 -4 -29 -15 -42 -25 -35 -26 -68 -24 -73 6 -3 15 0
27 8 30 8 3 14 1 14 -5 0 -6 7 -9 15 -5 8 3 15 1 15 -4 0 -6 -5 -10 -12 -10
-6 0 -9 -2 -6 -5 3 -4 23 5 43 20 41 27 55 31 55 15z m-326 -39 c6 1 18 -1 26
-4 8 -4 24 -8 35 -10 11 -2 33 -9 48 -15 15 -7 33 -11 40 -9 6 1 13 -8 15 -20
2 -13 -2 -23 -8 -23 -6 0 -20 -9 -32 -20 -12 -11 -30 -20 -39 -20 -10 0 -21
-5 -25 -11 -3 -6 -22 -17 -40 -25 -19 -8 -34 -19 -34 -25 0 -5 -6 -9 -12 -7
-7 1 -39 -10 -71 -26 -33 -15 -65 -25 -73 -22 -8 3 -14 0 -14 -5 0 -6 -9 -9
-20 -6 -11 3 -20 2 -20 -3 0 -4 -16 -10 -35 -12 -19 -2 -35 -2 -35 0 0 14 47
42 63 38 10 -2 21 2 24 10 3 8 10 14 17 13 23 -3 37 1 32 9 -9 15 39 8 51 -7
11 -14 12 -12 13 10 0 20 9 30 45 47 25 12 45 26 45 32 0 5 7 7 15 4 8 -4 15
-1 15 5 0 6 9 11 20 11 11 0 20 6 20 13 0 16 -85 61 -99 52 -7 -3 -11 2 -11
14 0 12 -5 21 -12 21 -6 0 -3 6 8 14 17 13 20 13 28 -5 5 -10 14 -18 20 -18z
m236 -71 c0 -5 9 -10 19 -10 11 0 21 -6 24 -12 3 -10 7 -10 20 1 15 12 17 11
17 -4 0 -11 5 -15 15 -11 28 10 16 -28 -18 -55 -42 -34 -97 -62 -97 -50 0 5
-18 12 -40 16 -22 4 -40 11 -40 17 0 6 -6 8 -14 5 -9 -4 -13 2 -13 19 0 14 5
24 14 24 8 0 11 -4 8 -10 -14 -23 7 -7 47 34 44 45 58 54 58 36z m-1296 -18
c5 11 7 11 12 0 4 -8 10 -10 17 -3 7 5 29 12 50 16 32 6 36 5 31 -9 -4 -10 -1
-16 9 -16 9 0 35 -18 59 -40 29 -27 38 -40 26 -40 -9 0 -19 6 -21 13 -3 7 -6
5 -6 -5 -1 -19 -12 -23 -25 -11 -4 4 -23 6 -42 4 -29 -2 -34 1 -34 18 0 12 -5
21 -11 21 -5 0 -7 -4 -4 -10 12 -19 -14 -10 -28 10 -8 11 -28 23 -45 26 -30 6
-41 22 -25 38 4 4 13 0 19 -9 9 -12 13 -13 18 -3z m409 -19 c19 7 32 -23 15
-34 -8 -5 -14 -3 -16 6 -2 8 -12 15 -23 15 -19 0 -25 11 -12 23 4 4 10 2 14
-4 4 -7 14 -9 22 -6z m1149 -29 c29 -9 20 -26 -37 -71 -49 -38 -56 -41 -87
-33 -18 6 -45 10 -60 10 -16 0 -28 2 -28 4 0 16 14 36 26 36 8 0 14 4 14 10 0
5 16 16 35 24 19 8 35 19 35 25 0 9 68 6 102 -5z m-1096 -3 c-4 -5 0 -12 6
-14 8 -3 6 -6 -4 -6 -10 -1 -18 6 -18 14 0 8 5 15 11 15 5 0 8 -4 5 -9z m322
-18 c-10 -2 -18 -9 -18 -14 0 -5 -7 -9 -15 -9 -8 0 -15 4 -15 9 0 10 24 19 50
19 10 0 9 -2 -2 -5z m-71 -10 c-4 -3 -2 -12 4 -20 9 -9 8 -13 0 -13 -6 0 -11
5 -11 11 0 5 -4 7 -10 4 -6 -3 -7 1 -4 9 3 9 11 16 17 16 6 0 7 -3 4 -7z
m-167 -13 c12 -7 12 -12 3 -21 -10 -10 -18 -10 -38 -1 -14 6 -25 16 -25 22 0
13 40 13 60 0z m129 3 c0 -5 -4 -17 -9 -28 -8 -18 -9 -17 -9 8 -1 15 4 27 9
27 6 0 10 -3 9 -7z m-46 -20 c-7 -2 -21 -2 -30 0 -10 3 -4 5 12 5 17 0 24 -2
18 -5z m545 -6 c12 1 22 -4 22 -9 0 -6 8 -7 17 -4 19 8 34 -10 26 -31 -3 -7
-12 -13 -20 -13 -8 0 -11 5 -8 13 4 6 -2 2 -13 -10 -12 -13 -32 -23 -47 -23
-15 0 -24 -4 -20 -10 3 -5 0 -10 -9 -10 -8 0 -17 -6 -20 -12 -5 -10 -7 -10
-12 0 -3 6 -12 12 -20 12 -8 0 -14 5 -14 11 0 5 -4 7 -10 4 -5 -3 -16 -3 -22
2 -7 4 -22 7 -33 8 -23 0 -28 30 -5 30 8 0 20 6 25 13 16 20 88 42 115 35 14
-3 35 -6 48 -6z m-584 -22 c-4 -8 -10 -15 -14 -15 -4 0 -10 7 -14 15 -4 10 1
15 14 15 13 0 18 -5 14 -15z m-115 -49 c1 -5 -5 -3 -12 3 -8 6 -17 8 -20 4 -4
-3 -7 -2 -7 3 0 6 6 16 12 22 10 10 14 9 20 -5 3 -10 7 -22 7 -27z m31 10 c0
-7 9 -16 20 -19 11 -3 20 -13 20 -24 -1 -17 -1 -17 -11 0 -5 9 -18 17 -28 17
-10 0 -21 9 -24 20 -3 13 0 20 9 20 8 0 14 -6 14 -14z m200 4 c0 -5 -4 -10
-10 -10 -5 0 -10 5 -10 10 0 6 5 10 10 10 6 0 10 -4 10 -10z m-37 -22 c-6 -7
-9 -20 -8 -29 2 -12 -3 -15 -22 -11 -24 4 -24 5 -3 19 11 8 18 19 15 24 -4 5
1 9 11 9 12 0 14 -4 7 -12z m77 2 c0 -5 -4 -10 -10 -10 -5 0 -10 5 -10 10 0 6
5 10 10 10 6 0 10 -4 10 -10z m-1153 -82 c-3 -8 -6 -5 -6 6 -1 11 2 17 5 13 3
-3 4 -12 1 -19z m-67 -43 c-7 -9 -15 -13 -19 -10 -3 3 1 10 9 15 21 14 24 12
10 -5z m353 -109 c4 -10 1 -13 -9 -9 -15 6 -19 23 -5 23 5 0 11 -7 14 -14z
m54 -42 c4 -12 14 -14 36 -10 27 5 28 4 16 -11 -11 -13 -11 -15 -1 -9 22 13
64 15 53 2 -5 -6 -10 -15 -11 -21 -7 -29 -14 -36 -35 -31 -12 3 -44 -1 -71 -9
-67 -20 -80 -20 -63 2 12 15 12 16 -3 10 -12 -4 -21 0 -28 13 -14 26 -13 30 8
30 14 0 15 -2 2 -10 -17 -11 -10 -13 14 -4 21 8 20 22 -1 26 -12 2 -14 6 -6
11 6 4 18 0 27 -8 17 -17 31 -4 22 20 -4 10 1 15 15 15 11 0 22 -7 26 -16z
m147 -30 c9 -3 16 -11 16 -18 0 -6 9 -12 20 -12 11 0 20 4 20 8 0 4 5 8 11 8
7 0 8 -7 4 -17 -4 -10 -7 -26 -7 -35 1 -24 -13 -23 -37 4 -18 18 -21 19 -27 5
-7 -20 -34 -10 -34 13 0 19 10 50 15 50 2 0 10 -3 19 -6z m122 -37 c10 4 12 0
8 -11 -9 -24 -34 -19 -33 7 0 12 3 17 5 10 3 -7 12 -9 20 -6z m-499 -23 c0 -7
-6 -15 -14 -18 -7 -3 -12 0 -10 7 1 7 -4 11 -10 10 -7 -2 -13 1 -13 6 0 5 11
9 23 9 13 0 24 -6 24 -14z m1172 -58 c8 -10 9 -16 1 -21 -5 -3 -10 -1 -10 4 0
6 -7 11 -16 11 -8 0 -12 5 -9 10 9 14 20 12 34 -4z m-936 -96 c4 -17 2 -20
-15 -14 -17 5 -19 3 -13 -15 4 -12 2 -21 -4 -21 -6 0 -11 10 -11 23 0 16 -3
18 -9 8 -10 -15 -46 -7 -69 15 -18 19 -7 18 23 -2 14 -9 25 -12 25 -6 0 6 -6
13 -12 15 -7 3 3 3 23 0 21 -3 39 -1 43 6 10 15 13 14 19 -9z m141 -36 c3 -8
2 -12 -4 -9 -6 3 -10 10 -10 16 0 14 7 11 14 -7z m-99 -3 c3 -5 1 -12 -5 -16
-5 -3 -10 1 -10 9 0 18 6 21 15 7z m-430 -19 c-3 -3 -11 0 -18 7 -9 10 -8 11
6 5 10 -3 15 -9 12 -12z m664 -19 c-1 -17 -3 -21 -6 -10 -2 9 -12 17 -21 18
-14 0 -13 2 3 9 11 5 21 9 23 9 1 1 1 -11 1 -26z m-56 2 c-3 -9 -8 -14 -10
-11 -3 3 -2 9 2 15 9 16 15 13 8 -4z m187 5 c0 -5 -2 -10 -4 -10 -3 0 -8 5
-11 10 -3 6 -1 10 4 10 6 0 11 -4 11 -10z m110 -21 c0 -4 -4 -11 -10 -14 -5
-3 -10 -1 -10 6 0 7 -10 9 -25 7 -28 -6 -35 8 -7 14 22 5 52 -2 52 -13z m-273
-11 c-3 -8 -6 -5 -6 6 -1 11 2 17 5 13 3 -3 4 -12 1 -19z m184 -11 c-10 -9
-11 -8 -5 6 3 10 9 15 12 12 3 -3 0 -11 -7 -18z m339 -2 c0 -8 -5 -15 -11 -15
-8 0 -7 -5 1 -15 20 -24 6 -28 -15 -5 -10 11 -13 20 -7 20 7 0 12 7 12 15 0 8
5 15 10 15 6 0 10 -7 10 -15z m-153 -17 c-3 -8 -6 -5 -6 6 -1 11 2 17 5 13 3
-3 4 -12 1 -19z m28 3 c3 -5 1 -12 -5 -16 -5 -3 -10 1 -10 9 0 18 6 21 15 7z
m169 -22 c8 -13 19 -18 26 -14 8 5 11 3 8 -5 -6 -19 -38 -21 -38 -3 0 9 -6 13
-14 10 -10 -4 -14 0 -13 14 2 25 12 24 31 -2z m216 -469 c0 -5 -5 -10 -11 -10
-5 0 -7 5 -4 10 3 6 8 10 11 10 2 0 4 -4 4 -10z m200 -190 c0 -5 -5 -10 -11
-10 -5 0 -7 5 -4 10 3 6 8 10 11 10 2 0 4 -4 4 -10z m225 -140 c3 -6 -1 -7 -9
-4 -18 7 -21 14 -7 14 6 0 13 -4 16 -10z m85 -47 c0 -9 -8 -8 -27 3 -16 7 -35
14 -43 15 -10 0 -9 3 4 8 22 9 66 -8 66 -26z m-383 -9 c-3 -3 -12 -4 -19 -1
-8 3 -5 6 6 6 11 1 17 -2 13 -5z m203 -63 c0 -5 12 -12 26 -15 15 -4 24 -10
21 -13 -8 -8 -67 17 -67 28 0 5 5 9 10 9 6 0 10 -4 10 -9z m195 -21 c3 -5 2
-10 -4 -10 -5 0 -13 5 -16 10 -3 6 -2 10 4 10 5 0 13 -4 16 -10z m-75 -30 c0
-5 -2 -10 -4 -10 -3 0 -8 5 -11 10 -3 6 -1 10 4 10 6 0 11 -4 11 -10z m48 -28
c2 -7 -2 -10 -12 -6 -9 3 -16 11 -16 16 0 13 23 5 28 -10z m61 -8 c5 3 11 0
14 -8 3 -8 -1 -17 -9 -20 -8 -3 -14 -1 -14 4 0 5 -6 7 -13 4 -8 -3 -13 4 -14
17 -2 16 1 18 12 9 8 -6 18 -9 24 -6z m231 -124 c8 -5 11 -10 5 -10 -5 0 -17
5 -25 10 -8 5 -10 10 -5 10 6 0 17 -5 25 -10z m-4313 -122 c-3 -8 -6 -5 -6 6
-1 11 2 17 5 13 3 -3 4 -12 1 -19z m3 -58 c0 -5 -5 -10 -11 -10 -5 0 -7 5 -4
10 3 6 8 10 11 10 2 0 4 -4 4 -10z m4650 -85 c23 7 39 -20 22 -37 -8 -8 -13
-7 -18 5 -3 9 -12 17 -19 17 -7 0 -19 8 -26 18 -13 15 -12 16 3 4 10 -8 26
-11 38 -7z m97 -40 c28 -9 20 -25 -11 -25 -22 0 -46 17 -46 32 0 8 17 6 57 -7z
m308 -235 c3 -5 1 -10 -4 -10 -6 0 -11 5 -11 10 0 6 2 10 4 10 3 0 8 -4 11
-10z m605 -557 c0 -10 -4 -14 -8 -8 -4 6 -11 13 -16 18 -5 4 -2 7 7 7 10 0 17
-8 17 -17z m87 -95 c-3 -8 -6 -5 -6 6 -1 11 2 17 5 13 3 -3 4 -12 1 -19z m49
-71 c4 -4 -2 -7 -14 -7 -12 0 -22 4 -22 9 0 10 26 9 36 -2z m44 -159 c0 -6 -3
-8 -7 -5 -3 4 -12 2 -20 -5 -11 -8 -12 -7 -7 6 7 18 34 22 34 4z m12 -90 c-7
-7 -12 -8 -12 -2 0 14 12 26 19 19 2 -3 -1 -11 -7 -17z m8 -53 c0 -8 -8 -15
-17 -14 -11 0 -13 3 -5 6 6 2 10 9 6 14 -3 5 0 9 5 9 6 0 11 -7 11 -15z m41
-25 c6 0 7 -4 4 -10 -14 -22 -32 -10 -27 18 4 19 7 22 10 10 2 -10 8 -18 13
-18z m-61 -30 c0 -5 -2 -10 -4 -10 -3 0 -8 5 -11 10 -3 6 -1 10 4 10 6 0 11
-4 11 -10z m25 -20 c3 -5 -1 -10 -10 -10 -9 0 -13 5 -10 10 3 6 8 10 10 10 2
0 7 -4 10 -10z m50 -8 c-3 -3 -11 0 -18 7 -9 10 -8 11 6 5 10 -3 15 -9 12 -12z
m112 -33 c2 -17 -1 -18 -13 -8 -13 11 -10 20 11 29 1 0 1 -9 2 -21z m-51 -66
c-11 -11 -17 4 -9 23 7 18 8 18 11 1 2 -10 1 -21 -2 -24z m39 28 c3 -5 1 -12
-5 -16 -5 -3 -10 1 -10 9 0 18 6 21 15 7z m45 -27 c0 -8 -19 -13 -24 -6 -3 5
1 9 9 9 8 0 15 -2 15 -3z m-87 -54 c-13 -5 -23 -14 -23 -20 0 -6 4 -9 9 -6 5
3 12 -1 15 -10 6 -15 -4 -13 -32 9 -9 8 -8 13 5 23 10 7 25 13 33 13 8 0 5 -4
-7 -9z m20 -85 c-3 -9 -8 -14 -10 -11 -3 3 -2 9 2 15 9 16 15 13 8 -4z m17
-51 c0 -8 -10 -14 -25 -14 -14 0 -25 5 -25 10 0 6 6 9 13 8 6 -2 11 2 10 9 -2
7 4 10 12 7 8 -4 15 -12 15 -20z m23 -35 c-8 -8 -16 -8 -30 0 -16 9 -14 10 12
11 21 0 26 -3 18 -11z m20 -21 c-4 -7 -8 -18 -9 -24 -3 -16 -37 -54 -49 -54
-5 0 -3 5 5 10 13 9 13 11 0 20 -13 8 -12 10 3 10 9 0 17 5 17 10 0 6 -8 10
-17 10 -24 0 -4 17 27 23 14 2 26 5 28 6 2 0 0 -5 -5 -11z m32 -18 c3 -5 1
-10 -4 -10 -6 0 -11 5 -11 10 0 6 2 10 4 10 3 0 8 -4 11 -10z m-18 -52 c-3 -7
-5 -2 -5 12 0 14 2 19 5 13 2 -7 2 -19 0 -25z m-16 -48 c0 -3 2 -13 4 -22 4
-20 -21 -13 -29 8 -3 9 -11 12 -17 8 -7 -4 -9 -3 -6 2 6 10 46 14 48 4z m106
-472 c-3 -8 -6 -5 -6 6 -1 11 2 17 5 13 3 -3 4 -12 1 -19z m-1300 -2490 c22
-21 23 -28 23 -167 0 -181 16 -344 42 -439 20 -74 22 -100 17 -202 -2 -36 5
-82 21 -133 23 -78 23 -78 5 -155 -9 -42 -21 -107 -25 -143 -4 -36 -14 -77
-23 -90 -10 -13 -17 -44 -18 -69 0 -25 -4 -67 -9 -95 -22 -120 -23 -143 -6
-160 9 -9 16 -26 16 -38 0 -12 3 -32 6 -44 5 -18 1 -25 -20 -33 -33 -12 -33
-17 4 -55 44 -46 66 -116 64 -204 -1 -59 -5 -77 -20 -88 -10 -7 -24 -13 -31
-13 -17 0 -94 246 -101 324 -3 33 -10 64 -16 68 -8 5 -7 8 2 8 9 0 11 47 10
208 -3 187 -1 210 15 226 9 10 17 23 17 29 0 7 -7 4 -14 -6 -21 -27 -32 -2
-39 88 -4 44 -16 114 -28 155 -14 48 -22 105 -23 157 -1 46 -4 83 -7 83 -18 0
-16 37 7 107 25 76 26 83 21 261 -5 158 -4 187 10 208 12 18 14 37 9 75 -5 39
-3 58 13 87 10 20 22 45 25 55 7 23 25 22 53 -5z m-5079 -400 c-1 -16 -8 -33
-18 -38 -14 -8 -17 -5 -15 18 3 45 5 49 19 49 10 0 14 -10 14 -29z m2 -92 c15
-19 17 -245 2 -301 -6 -22 -18 -98 -28 -170 -18 -137 -25 -155 -55 -155 -34 0
-42 39 -32 145 7 63 7 112 1 142 -9 39 -7 51 10 82 12 21 24 57 27 82 22 168
42 214 75 175z m5093 -2586 c-6 -47 -23 -80 -23 -44 0 11 -7 29 -15 40 -19 25
-19 48 2 87 l16 32 13 -35 c6 -19 10 -55 7 -80z m47 -6 c0 -8 -5 -12 -10 -9
-6 4 -8 11 -5 16 9 14 15 11 15 -7z m-50 -134 c0 -5 -4 -10 -10 -10 -5 0 -10
5 -10 10 0 6 5 10 10 10 6 0 10 -4 10 -10z m30 0 c0 -5 -2 -10 -4 -10 -3 0 -8
5 -11 10 -3 6 -1 10 4 10 6 0 11 -4 11 -10z m1120 -309 c0 -6 -4 -13 -10 -16
-5 -3 -10 1 -10 9 0 9 5 16 10 16 6 0 10 -4 10 -9z m-39 -141 l-10 -45 4 55
c7 82 8 87 12 60 2 -14 -1 -45 -6 -70z m-1616 -610 c-11 -5 -27 -9 -35 -9 -9
0 -8 4 5 9 11 5 27 9 35 9 9 0 8 -4 -5 -9z m-188 -56 c-3 -3 -12 -4 -19 -1 -8
3 -5 6 6 6 11 1 17 -2 13 -5z m-544 -41 c-7 -2 -21 -2 -30 0 -10 3 -4 5 12 5
17 0 24 -2 18 -5z m344 1 c-3 -3 -12 -4 -19 -1 -8 3 -5 6 6 6 11 1 17 -2 13
-5z m-2600 -20 c-3 -3 -12 -4 -19 -1 -8 3 -5 6 6 6 11 1 17 -2 13 -5z m2010
-40 c-3 -3 -12 -4 -19 -1 -8 3 -5 6 6 6 11 1 17 -2 13 -5z m1811 -749 c-3 -3
-9 2 -12 12 -6 14 -5 15 5 6 7 -7 10 -15 7 -18z m-88 -589 c0 -3 -4 -8 -10
-11 -5 -3 -10 -1 -10 4 0 6 5 11 10 11 6 0 10 -2 10 -4z m-23 -103 c-3 -10 -5
-4 -5 12 0 17 2 24 5 18 2 -7 2 -21 0 -30z m-687 -4498 c0 -8 -4 -15 -10 -15
-5 0 -10 7 -10 15 0 8 5 15 10 15 6 0 10 -7 10 -15z m8 -43 c6 -18 -15 -14
-22 4 -4 10 -1 14 6 12 6 -2 14 -10 16 -16z m12 -68 c0 -8 -4 -12 -10 -9 -5 3
-10 10 -10 16 0 5 5 9 10 9 6 0 10 -7 10 -16z m-3945 -2322 c-8 -8 -25 17 -25
38 0 9 6 6 16 -8 9 -13 13 -26 9 -30z m-1445 -1786 c0 -3 -4 -8 -10 -11 -5 -3
-10 -1 -10 4 0 6 5 11 10 11 6 0 10 -2 10 -4z m270 -96 c0 -5 -4 -10 -10 -10
-5 0 -10 5 -10 10 0 6 5 10 10 10 6 0 10 -4 10 -10z m707 -59 c0 -11 -5 -18
-9 -15 -4 3 -5 11 -1 19 7 21 12 19 10 -4z m4589 -120 c-5 -8 -56 -3 -56 5 0
2 14 4 31 4 16 0 28 -4 25 -9z m339 -491 c-3 -5 -11 -10 -16 -10 -6 0 -7 5 -4
10 3 6 11 10 16 10 6 0 7 -4 4 -10z m-750 -98 c11 -2 27 -11 35 -19 13 -14 11
-15 -20 -9 -33 6 -50 20 -50 41 0 7 3 7 8 0 4 -5 16 -11 27 -13z m123 -31 c28
-24 28 -32 0 -27 -13 1 -23 7 -23 12 0 5 -4 15 -8 22 -12 18 7 15 31 -7z m542
-40 c0 -6 -4 -13 -10 -16 -5 -3 -10 1 -10 9 0 9 5 16 10 16 6 0 10 -4 10 -9z
m160 -15 c0 -3 -4 -8 -10 -11 -5 -3 -10 -1 -10 4 0 6 5 11 10 11 6 0 10 -2 10
-4z m-1131 -111 c-1 -27 -4 -63 -8 -80 l-6 -29 -29 29 c-16 17 -26 25 -22 18
3 -6 -2 -13 -11 -15 -13 -3 -8 -9 20 -23 23 -12 37 -26 37 -37 0 -34 -23 -158
-29 -158 -3 0 -7 -17 -7 -38 -1 -20 -14 -63 -28 -94 -14 -31 -26 -62 -26 -67
0 -6 -4 -19 -9 -29 -5 -9 -20 -42 -33 -74 -19 -46 -26 -54 -37 -45 -11 10 -13
8 -7 -10 4 -12 2 -24 -4 -28 -6 -3 -8 -11 -5 -16 4 -5 1 -9 -6 -9 -6 0 -9 8
-6 20 3 11 1 20 -4 20 -5 0 -9 -17 -9 -37 0 -27 -3 -34 -9 -23 -6 8 -7 18 -5
22 3 5 -6 3 -20 -4 -27 -12 -37 -32 -11 -22 8 4 15 1 15 -4 0 -12 -67 -28 -77
-18 -4 3 3 6 15 6 23 0 26 15 12 60 -5 17 -8 19 -9 8 -1 -10 -6 -18 -11 -18
-6 0 -8 11 -6 25 3 17 0 25 -10 25 -9 0 -14 -11 -14 -30 0 -16 -4 -30 -10 -30
-5 0 -10 4 -10 9 0 12 -53 9 -62 -4 -5 -6 -8 -5 -8 3 0 6 -4 12 -9 12 -5 0 -7
-9 -4 -20 4 -17 0 -20 -25 -20 -24 0 -32 6 -41 30 -5 17 -6 28 -2 25 5 -3 21
2 37 10 25 12 29 12 40 -3 7 -9 16 -14 20 -9 4 4 2 7 -4 7 -20 0 -14 40 6 41
11 0 12 2 4 6 -7 3 -21 -2 -31 -11 -36 -33 -166 -40 -178 -10 -3 8 -11 14 -18
14 -7 0 -18 7 -25 14 -6 8 -32 25 -56 36 -24 12 -42 26 -39 30 3 5 -8 11 -25
15 -35 8 -36 10 -11 36 16 18 20 19 28 6 4 -9 17 -15 28 -14 11 1 19 -3 18 -9
-1 -7 8 -9 22 -6 15 2 25 0 25 -7 0 -6 6 -11 14 -11 7 0 19 -7 26 -15 7 -8 26
-15 42 -15 17 0 27 -4 23 -10 -3 -5 -1 -10 4 -10 6 0 11 5 11 11 0 6 8 8 19 4
14 -4 21 0 26 15 6 18 9 19 22 8 13 -10 17 -10 20 0 3 6 13 12 23 12 11 0 24
9 30 20 6 11 19 20 30 20 10 0 22 5 26 12 4 7 3 8 -4 4 -7 -4 -12 -2 -12 3 0
6 7 11 15 11 8 0 15 4 15 10 0 5 7 7 15 4 8 -4 15 -1 15 6 0 6 5 8 12 4 7 -5
9 -2 6 8 -4 9 6 27 27 47 22 21 35 27 38 19 4 -9 6 -10 6 -1 1 6 -3 15 -9 18
-5 3 -10 11 -10 16 0 6 5 7 10 4 6 -3 10 3 10 13 0 14 6 19 18 17 9 -1 11 0 4
2 -17 6 -11 59 6 55 8 -1 11 2 7 8 -3 5 2 10 12 10 10 0 14 4 8 8 -20 14 -17
46 7 64 12 9 17 18 11 18 -7 0 -13 5 -13 11 0 5 4 8 9 5 4 -3 6 10 4 29 -2 23
1 35 8 35 7 0 10 3 6 6 -7 8 0 15 77 77 68 55 76 52 75 -28z m478 13 c-3 -8
-6 -5 -6 6 -1 11 2 17 5 13 3 -3 4 -12 1 -19z m-183 -30 c-4 -6 0 -14 7 -19
11 -7 10 -9 -3 -9 -10 0 -18 4 -18 9 0 5 -3 17 -6 25 -5 12 -2 15 10 10 9 -3
13 -11 10 -16z m162 -16 c-3 -3 -1 -11 6 -19 9 -11 8 -13 -3 -11 -10 2 -13 -4
-11 -21 2 -15 0 -21 -7 -17 -6 4 -11 25 -11 46 0 31 3 38 15 33 9 -3 13 -8 11
-11z m-156 -42 c-8 -5 -17 -7 -19 -4 -3 3 1 9 9 14 8 5 17 7 19 4 3 -3 -1 -9
-9 -14z m844 -45 c-6 -16 -24 -21 -24 -7 0 11 11 22 21 22 5 0 6 -7 3 -15z
m-21 -60 c-3 -9 -8 -14 -10 -11 -3 3 -2 9 2 15 9 16 15 13 8 -4z m-317 -132
c-11 -11 -19 6 -11 24 8 17 8 17 12 0 3 -10 2 -21 -1 -24z m-91 17 c3 -5 1
-10 -4 -10 -6 0 -11 5 -11 10 0 6 2 10 4 10 3 0 8 -4 11 -10z m-2398 -25 c0
-8 -4 -15 -9 -15 -4 0 -8 7 -8 15 0 8 4 15 8 15 5 0 9 -7 9 -15z m850 -171
c-3 -3 -12 -4 -19 -1 -8 3 -5 6 6 6 11 1 17 -2 13 -5z m-6 -69 c24 -8 20 -28
-6 -34 -12 -2 -16 2 -12 11 3 8 -4 20 -14 26 -10 7 -19 17 -19 23 0 6 7 4 15
-5 8 -8 24 -18 36 -21z m71 -43 c-2 -9 4 -11 18 -7 11 4 20 2 20 -4 0 -6 7
-11 15 -11 8 0 15 -4 15 -9 0 -10 39 -35 73 -47 20 -7 17 -31 -4 -25 -32 8
-59 8 -59 0 0 -5 -4 -9 -10 -9 -5 0 -7 6 -4 14 3 7 -2 16 -11 20 -10 3 -15 13
-12 20 7 18 -17 28 -31 14 -7 -7 -13 -4 -21 10 -6 10 -7 22 -4 26 3 3 1 6 -6
6 -9 0 -11 -9 -6 -30 4 -16 4 -30 2 -30 -10 0 -33 56 -29 68 6 18 58 11 54 -6z
m223 -142 c-11 -17 -23 -1 -18 21 5 19 7 19 15 5 5 -9 6 -21 3 -26z m235 30
c0 -5 -8 -10 -17 -10 -15 0 -16 2 -3 10 19 12 20 12 20 0z m60 -55 c-7 -8 -20
-15 -28 -15 -13 0 -12 3 4 15 25 19 40 19 24 0z m-273 -31 c-3 -3 -12 -4 -19
-1 -8 3 -5 6 6 6 11 1 17 -2 13 -5z m253 -15 c0 -6 -4 -7 -10 -4 -5 3 -10 11
-10 16 0 6 5 7 10 4 6 -3 10 -11 10 -16z m-33 -34 c-23 -22 -33 -18 -12 5 10
11 20 18 23 16 2 -3 -3 -12 -11 -21z m-477 -5 c0 -5 -5 -10 -11 -10 -5 0 -7 5
-4 10 3 6 8 10 11 10 2 0 4 -4 4 -10z"/>
<path d="M8550 26200 c-8 -5 -12 -12 -9 -15 4 -3 12 1 19 10 14 17 11 19 -10
5z"/>
<path d="M7885 2020 c-3 -5 -1 -10 4 -10 6 0 11 5 11 10 0 6 -2 10 -4 10 -3 0
-8 -4 -11 -10z"/>
<path d="M7920 1996 c0 -2 7 -9 15 -16 13 -11 14 -10 9 4 -5 14 -24 23 -24 12z"/>
<path d="M7872 1930 c-14 -24 -16 -50 -2 -50 11 0 24 43 18 60 -1 5 -9 1 -16
-10z"/>
<path d="M7925 1920 c-3 -5 1 -10 9 -10 9 0 16 -4 16 -10 0 -5 4 -10 9 -10 5
0 7 9 4 20 -6 21 -28 27 -38 10z"/>
<path d="M7710 1860 c0 -5 5 -10 11 -10 5 0 7 5 4 10 -3 6 -8 10 -11 10 -2 0
-4 -4 -4 -10z"/>
<path d="M7830 1860 c0 -5 5 -10 10 -10 6 0 10 5 10 10 0 6 -4 10 -10 10 -5 0
-10 -4 -10 -10z"/>
<path d="M7801 1834 c0 -11 3 -14 6 -6 3 7 2 16 -1 19 -3 4 -6 -2 -5 -13z"/>
<path d="M7848 1813 c7 -3 16 -2 19 1 4 3 -2 6 -13 5 -11 0 -14 -3 -6 -6z"/>
<path d="M7735 27550 c3 -5 8 -10 11 -10 2 0 4 5 4 10 0 6 -5 10 -11 10 -5 0
-7 -4 -4 -10z"/>
<path d="M7175 27510 c3 -5 10 -10 16 -10 5 0 9 5 9 10 0 6 -7 10 -16 10 -8 0
-12 -4 -9 -10z"/>
<path d="M7815 27510 c-3 -6 1 -7 9 -4 18 7 21 14 7 14 -6 0 -13 -4 -16 -10z"/>
<path d="M7920 27507 c0 -10 8 -17 18 -17 9 0 13 4 7 8 -5 4 -13 11 -17 16 -5
5 -8 2 -8 -7z"/>
<path d="M7085 27490 c-3 -5 -1 -10 4 -10 6 0 11 5 11 10 0 6 -2 10 -4 10 -3
0 -8 -4 -11 -10z"/>
<path d="M7148 27493 c7 -3 16 -2 19 1 4 3 -2 6 -13 5 -11 0 -14 -3 -6 -6z"/>
<path d="M6870 27464 c0 -14 4 -23 10 -19 6 3 10 15 10 26 0 10 -4 19 -10 19
-5 0 -10 -12 -10 -26z"/>
<path d="M6767 27439 c7 -7 15 -10 18 -7 3 3 -2 9 -12 12 -14 6 -15 5 -6 -5z"/>
<path d="M6801 27421 c-8 -5 -11 -16 -8 -25 6 -15 8 -15 25 1 27 26 14 44 -17
24z"/>
<path d="M8170 27351 c0 -6 4 -13 10 -16 6 -3 7 1 4 9 -7 18 -14 21 -14 7z"/>
<path d="M8328 27333 c7 -3 16 -2 19 1 4 3 -2 6 -13 5 -11 0 -14 -3 -6 -6z"/>
<path d="M6735 27311 c-3 -5 -1 -12 4 -15 5 -3 11 1 15 9 6 16 -9 21 -19 6z"/>
<path d="M6568 27293 c7 -3 16 -2 19 1 4 3 -2 6 -13 5 -11 0 -14 -3 -6 -6z"/>
<path d="M6720 27270 c0 -22 25 -60 39 -60 14 0 14 2 1 10 -12 7 -12 12 5 29
10 12 15 24 11 28 -4 4 -11 1 -15 -6 -6 -9 -11 -10 -15 -2 -9 13 -26 15 -26 1z"/>
<path d="M6460 27176 c0 -8 -8 -17 -17 -19 -14 -4 -12 -5 5 -6 12 0 22 1 22 3
0 2 3 11 6 20 3 9 1 16 -5 16 -6 0 -11 -6 -11 -14z"/>
<path d="M6880 27160 c0 -5 5 -10 10 -10 6 0 10 5 10 10 0 6 -4 10 -10 10 -5
0 -10 -4 -10 -10z"/>
<path d="M8392 27120 c-7 -11 -8 -20 -2 -20 5 0 7 -8 3 -17 -3 -10 -3 -15 2
-11 7 6 18 68 12 68 -1 0 -8 -9 -15 -20z"/>
<path d="M8440 27109 c0 -5 5 -7 10 -4 6 3 10 8 10 11 0 2 -4 4 -10 4 -5 0
-10 -5 -10 -11z"/>
<path d="M8475 27050 c-3 -5 -1 -10 4 -10 6 0 11 5 11 10 0 6 -2 10 -4 10 -3
0 -8 -4 -11 -10z"/>
<path d="M8600 26950 c0 -5 5 -10 10 -10 6 0 10 5 10 10 0 6 -4 10 -10 10 -5
0 -10 -4 -10 -10z"/>
<path d="M6250 26921 c0 -29 15 -33 16 -5 1 13 -2 24 -7 24 -5 0 -9 -9 -9 -19z"/>
<path d="M8630 26930 c0 -5 5 -10 11 -10 5 0 7 5 4 10 -3 6 -8 10 -11 10 -2 0
-4 -4 -4 -10z"/>
<path d="M6258 26873 c7 -3 16 -2 19 1 4 3 -2 6 -13 5 -11 0 -14 -3 -6 -6z"/>
<path d="M8686 26851 c-3 -5 1 -11 9 -14 9 -4 12 -1 8 9 -6 16 -10 17 -17 5z"/>
<path d="M8592 26763 c2 -11 15 -16 41 -17 20 -1 37 2 37 7 0 4 -7 7 -15 7 -8
0 -15 3 -15 8 0 4 -12 8 -26 8 -18 2 -24 -3 -22 -13z"/>
<path d="M6245 26750 c-3 -5 1 -10 9 -10 9 0 16 5 16 10 0 6 -4 10 -9 10 -6 0
-13 -4 -16 -10z"/>
<path d="M8701 26733 c7 -10 14 -20 16 -22 1 -2 1 6 0 18 -1 11 -8 21 -15 21
-12 0 -12 -3 -1 -17z"/>
<path d="M6440 26420 c0 -5 5 -10 10 -10 6 0 10 5 10 10 0 6 -4 10 -10 10 -5
0 -10 -4 -10 -10z"/>
<path d="M6438 26393 c6 -2 18 -2 25 0 6 3 1 5 -13 5 -14 0 -19 -2 -12 -5z"/>
<path d="M8870 26355 c-2 -30 -2 -30 -10 -5 -5 15 -8 18 -9 8 -1 -9 -4 -23 -7
-31 -3 -8 2 -17 10 -20 9 -4 15 -3 14 1 -1 4 2 15 6 24 4 9 6 25 3 35 -3 11
-5 7 -7 -12z"/>
<path d="M8854 26275 c-3 -8 -4 -20 -2 -27 3 -7 7 -1 10 15 6 29 1 36 -8 12z"/>
<path d="M8828 26066 c-2 -20 0 -36 5 -36 5 0 7 -7 4 -15 -4 -8 0 -26 7 -40
l14 -26 4 24 c3 13 0 35 -5 48 -6 13 -12 35 -14 49 -6 36 -10 35 -15 -4z"/>
<path d="M6160 25993 c1 -8 87 -87 98 -89 26 -6 52 -18 52 -24 0 -4 19 -36 43
-71 24 -35 50 -79 58 -96 8 -18 17 -33 21 -33 5 0 8 -9 8 -19 0 -11 3 -21 8
-23 11 -5 62 -83 62 -96 0 -7 5 -12 10 -12 6 0 10 -10 10 -21 0 -18 -2 -19
-15 -9 -12 10 -15 10 -15 0 0 -9 -9 -10 -32 -5 -18 4 -42 8 -53 9 -22 3 -51
13 -77 27 -10 5 -27 9 -38 9 -15 0 -20 7 -20 26 0 32 -30 124 -40 124 -9 0 -2
-38 10 -55 3 -5 7 -23 8 -39 1 -16 7 -46 12 -66 10 -37 26 -46 105 -55 6 0 21
-7 34 -14 13 -7 42 -15 65 -17 23 -2 56 -6 74 -7 18 -2 35 0 38 5 3 5 12 4 20
-3 25 -21 16 26 -11 55 -13 14 -22 33 -19 41 4 8 2 15 -3 15 -12 0 -81 91
-103 135 -8 17 -23 39 -33 50 -10 11 -24 34 -31 50 -7 17 -19 38 -27 46 -8 8
-22 28 -31 44 -9 17 -27 32 -39 33 -12 2 -29 10 -36 18 -8 8 -20 14 -26 14 -7
0 -25 14 -40 30 -28 29 -47 38 -47 23z"/>
<path d="M8820 25944 c0 -13 -3 -14 -15 -4 -12 10 -15 9 -15 -4 0 -10 4 -15 9
-12 5 4 11 2 13 -4 2 -6 9 -1 15 9 8 13 9 22 3 26 -6 3 -10 -1 -10 -11z"/>
<path d="M6200 25845 c0 -9 7 -29 15 -45 9 -17 12 -30 8 -30 -5 0 -1 -5 7 -11
11 -8 12 -12 3 -16 -17 -6 -17 -23 0 -23 7 0 28 -31 46 -70 33 -71 58 -96 92
-87 10 3 19 1 21 -3 5 -12 68 -23 68 -11 0 14 -51 105 -64 113 -6 4 -7 10 -4
14 4 3 1 13 -7 21 -8 8 -18 26 -22 41 -3 15 -15 38 -25 51 -21 27 -86 60 -105
54 -7 -3 -13 0 -13 6 0 6 -4 11 -10 11 -5 0 -10 -7 -10 -15z"/>
<path d="M8478 25818 c5 -5 16 -8 23 -6 8 3 3 7 -10 11 -17 4 -21 3 -13 -5z"/>
<path d="M8460 25749 c0 -5 5 -7 10 -4 6 3 10 8 10 11 0 2 -4 4 -10 4 -5 0
-10 -5 -10 -11z"/>
<path d="M8743 25695 c-18 -18 -33 -36 -33 -40 0 -4 -8 -14 -17 -21 -16 -12
-16 -13 -2 -14 20 0 69 37 69 52 0 6 7 19 16 29 29 32 -1 27 -33 -6z"/>
<path d="M5883 25667 c0 -7 9 -14 19 -14 11 -1 18 3 15 10 -5 17 -34 21 -34 4z"/>
<path d="M8860 25541 c0 -11 -4 -23 -10 -26 -5 -3 -10 -14 -10 -23 0 -14 2
-13 13 3 21 31 27 54 17 60 -6 4 -10 -3 -10 -14z"/>
<path d="M8920 25509 c0 -5 5 -7 10 -4 6 3 10 8 10 11 0 2 -4 4 -10 4 -5 0
-10 -5 -10 -11z"/>
<path d="M8621 25454 c-12 -15 -21 -30 -21 -34 0 -4 -29 -35 -64 -70 -36 -35
-63 -67 -60 -72 6 -10 79 -4 114 10 21 8 76 62 108 107 33 45 52 74 52 79 0 3
-24 6 -54 6 -47 0 -57 -4 -75 -26z"/>
<path d="M8639 25273 c-13 -16 -12 -17 4 -4 9 7 17 15 17 17 0 8 -8 3 -21 -13z"/>
<path d="M8878 25245 c2 -14 6 -25 8 -25 2 0 4 11 4 25 0 14 -4 25 -9 25 -4 0
-6 -11 -3 -25z"/>
<path d="M8861 25194 c0 -11 3 -14 6 -6 3 7 2 16 -1 19 -3 4 -6 -2 -5 -13z"/>
<path d="M6206 24995 c-3 -9 0 -15 9 -15 8 0 15 7 15 15 0 8 -4 15 -9 15 -5 0
-11 -7 -15 -15z"/>
<path d="M6254 24950 c1 -8 10 -16 21 -17 15 -1 15 0 3 3 -9 3 -19 11 -21 17
-2 7 -3 5 -3 -3z"/>
<path d="M6181 24924 c0 -11 3 -14 6 -6 3 7 2 16 -1 19 -3 4 -6 -2 -5 -13z"/>
<path d="M6240 24789 c0 -5 5 -7 10 -4 6 3 10 8 10 11 0 2 -4 4 -10 4 -5 0
-10 -5 -10 -11z"/>
<path d="M6225 24760 c-3 -5 1 -10 9 -10 9 0 16 5 16 10 0 6 -4 10 -9 10 -6 0
-13 -4 -16 -10z"/>
<path d="M8235 24680 c4 -6 11 -8 16 -5 14 9 11 15 -7 15 -8 0 -12 -5 -9 -10z"/>
<path d="M8261 24644 c0 -11 3 -14 6 -6 3 7 2 16 -1 19 -3 4 -6 -2 -5 -13z"/>
<path d="M8268 24613 c-18 -5 -33 -33 -18 -33 6 0 10 5 10 10 0 17 18 11 23
-7 3 -11 5 -7 6 10 0 15 0 26 -1 26 -2 -1 -10 -3 -20 -6z"/>
<path d="M8206 24566 c3 -9 -5 -16 -23 -21 -17 -4 -29 -2 -31 4 -2 6 -8 11
-13 11 -6 0 -7 -4 -4 -10 3 -5 -3 -10 -13 -10 -11 0 -27 -11 -36 -25 -17 -26
-17 -28 8 -19 8 3 12 12 9 21 -4 10 -2 14 4 10 5 -3 10 -29 11 -57 1 -43 -2
-50 -19 -50 -10 0 -19 -7 -19 -15 0 -8 5 -15 10 -15 6 0 10 5 10 11 0 6 6 9
13 6 7 -3 19 4 26 14 6 11 23 24 37 29 14 6 23 14 19 19 -3 6 8 20 24 32 26
19 28 24 15 36 -8 8 -14 21 -14 29 0 8 -4 14 -10 14 -5 0 -7 -6 -4 -14z m-41
-75 c3 -5 1 -12 -5 -16 -5 -3 -10 1 -10 9 0 18 6 21 15 7z m-15 -41 c0 -5 -5
-10 -11 -10 -5 0 -7 5 -4 10 3 6 8 10 11 10 2 0 4 -4 4 -10z"/>
<path d="M8288 24553 c7 -3 16 -2 19 1 4 3 -2 6 -13 5 -11 0 -14 -3 -6 -6z"/>
<path d="M8273 24525 c-7 -8 -13 -20 -13 -26 0 -7 9 -2 20 11 11 13 20 25 20
27 0 8 -16 1 -27 -12z"/>
<path d="M6540 24500 c0 -13 11 -13 30 0 12 8 11 10 -7 10 -13 0 -23 -4 -23
-10z"/>
<path d="M6580 24479 c0 -5 5 -7 10 -4 6 3 10 8 10 11 0 2 -4 4 -10 4 -5 0
-10 -5 -10 -11z"/>
<path d="M8064 24463 c3 -7 2 -12 -2 -12 -4 1 -14 1 -22 0 -12 -1 -12 -3 2
-11 9 -6 23 -7 32 -4 21 8 21 41 1 41 -9 0 -14 -6 -11 -14z"/>
<path d="M8215 24470 c3 -5 8 -10 11 -10 2 0 4 5 4 10 0 6 -5 10 -11 10 -5 0
-7 -4 -4 -10z"/>
<path d="M6520 24460 c0 -5 5 -10 10 -10 6 0 10 5 10 10 0 6 -4 10 -10 10 -5
0 -10 -4 -10 -10z"/>
<path d="M7970 24454 c0 -8 5 -12 10 -9 6 4 8 11 5 16 -9 14 -15 11 -15 -7z"/>
<path d="M7990 24431 c0 -5 5 -13 10 -16 6 -3 10 -2 10 4 0 5 -4 13 -10 16 -5
3 -10 2 -10 -4z"/>
<path d="M8022 24310 c0 -14 2 -19 5 -12 2 6 2 18 0 25 -3 6 -5 1 -5 -13z"/>
<path d="M7840 24265 c0 -8 2 -15 4 -15 2 0 6 7 10 15 3 8 1 15 -4 15 -6 0
-10 -7 -10 -15z"/>
<path d="M8020 24251 c0 -10 7 -24 15 -31 9 -8 15 -9 15 -2 0 6 -5 14 -11 17
-6 4 -8 13 -5 21 3 8 1 14 -4 14 -6 0 -10 -8 -10 -19z"/>
<path d="M6250 24151 c0 -6 5 -13 10 -16 6 -3 10 1 10 9 0 9 -4 16 -10 16 -5
0 -10 -4 -10 -9z"/>
<path d="M6137 23953 c-10 -9 -9 -23 1 -23 5 0 9 7 9 15 0 17 -1 18 -10 8z"/>
<path d="M6024 23926 c-16 -9 -18 -14 -9 -23 9 -8 15 -6 24 9 15 25 12 28 -15
14z"/>
<path d="M5790 23778 c-22 -10 -23 -12 -6 -15 10 -3 26 2 34 11 19 18 8 20
-28 4z"/>
<path d="M5256 23514 c-4 -9 -4 -19 -1 -22 2 -3 7 3 11 12 4 9 4 19 1 22 -2 3
-7 -3 -11 -12z"/>
<path d="M5087 23473 c-4 -3 -7 -11 -7 -17 0 -6 5 -5 12 2 6 6 9 14 7 17 -3 3
-9 2 -12 -2z"/>
<path d="M8412 23449 c2 -6 -3 -14 -11 -17 -8 -3 -11 0 -7 7 4 6 1 11 -8 11
-19 0 -21 -19 -3 -25 6 -3 26 -1 42 3 30 9 30 9 7 21 -17 9 -22 9 -20 0z"/>
<path d="M8428 23408 c5 -5 16 -8 23 -6 8 3 3 7 -10 11 -17 4 -21 3 -13 -5z"/>
<path d="M8480 23321 c0 -25 6 -27 13 -6 4 8 2 17 -3 20 -6 4 -10 -3 -10 -14z"/>
<path d="M8640 23240 c0 -5 5 -10 10 -10 6 0 10 5 10 10 0 6 -4 10 -10 10 -5
0 -10 -4 -10 -10z"/>
<path d="M4515 23230 c-4 -7 3 -8 22 -4 38 9 42 14 10 14 -14 0 -29 -5 -32
-10z"/>
<path d="M8600 23230 c0 -6 7 -10 15 -10 8 0 15 2 15 4 0 2 -7 6 -15 10 -8 3
-15 1 -15 -4z"/>
<path d="M9096 22894 c-10 -25 -2 -26 24 -4 22 19 22 20 3 20 -12 0 -24 -7
-27 -16z"/>
<path d="M9133 22880 c2 -8 12 -16 23 -17 13 -2 15 -1 4 4 -8 3 -19 11 -23 17
-6 7 -7 6 -4 -4z"/>
<path d="M9168 22843 c7 -3 16 -2 19 1 4 3 -2 6 -13 5 -11 0 -14 -3 -6 -6z"/>
<path d="M9288 22793 c7 -3 16 -2 19 1 4 3 -2 6 -13 5 -11 0 -14 -3 -6 -6z"/>
<path d="M9208 22753 c7 -3 16 -2 19 1 4 3 -2 6 -13 5 -11 0 -14 -3 -6 -6z"/>
<path d="M9228 22733 c7 -3 16 -2 19 1 4 3 -2 6 -13 5 -11 0 -14 -3 -6 -6z"/>
<path d="M9540 22490 c0 -19 3 -21 12 -12 9 9 9 15 0 24 -9 9 -12 7 -12 -12z"/>
<path d="M9660 22446 c0 -2 7 -7 16 -10 8 -3 12 -2 9 4 -6 10 -25 14 -25 6z"/>
<path d="M9585 22430 c-3 -5 -1 -10 4 -10 6 0 11 5 11 10 0 6 -2 10 -4 10 -3
0 -8 -4 -11 -10z"/>
<path d="M10140 21850 c0 -5 5 -10 11 -10 5 0 7 5 4 10 -3 6 -8 10 -11 10 -2
0 -4 -4 -4 -10z"/>
<path d="M10217 21689 c4 -13 8 -18 11 -10 2 7 -1 18 -6 23 -8 8 -9 4 -5 -13z"/>
<path d="M10273 21543 c9 -2 25 -2 35 0 9 3 1 5 -18 5 -19 0 -27 -2 -17 -5z"/>
<path d="M10500 21251 c0 -6 4 -13 10 -16 6 -3 7 1 4 9 -7 18 -14 21 -14 7z"/>
<path d="M10370 21240 c0 -5 5 -10 11 -10 5 0 7 5 4 10 -3 6 -8 10 -11 10 -2
0 -4 -4 -4 -10z"/>
<path d="M10510 21129 c0 -5 5 -7 10 -4 6 3 10 8 10 11 0 2 -4 4 -10 4 -5 0
-10 -5 -10 -11z"/>
<path d="M10440 20780 c-9 -6 -10 -10 -3 -10 6 0 15 5 18 10 8 12 4 12 -15 0z"/>
<path d="M10450 20669 c0 -5 5 -7 10 -4 6 3 10 8 10 11 0 2 -4 4 -10 4 -5 0
-10 -5 -10 -11z"/>
<path d="M10496 20317 c3 -10 9 -15 12 -12 3 3 0 11 -7 18 -10 9 -11 8 -5 -6z"/>
<path d="M10600 19239 c0 -5 5 -7 10 -4 6 3 10 8 10 11 0 2 -4 4 -10 4 -5 0
-10 -5 -10 -11z"/>
<path d="M10608 19195 c-3 -14 -1 -25 3 -25 5 0 9 11 9 25 0 14 -2 25 -4 25
-2 0 -6 -11 -8 -25z"/>
<path d="M10613 19080 c0 -25 2 -35 4 -22 2 12 2 32 0 45 -2 12 -4 2 -4 -23z"/>
<path d="M10682 17860 c0 -14 2 -19 5 -12 2 6 2 18 0 25 -3 6 -5 1 -5 -13z"/>
<path d="M10580 16349 c0 -14 -5 -30 -11 -36 -7 -7 -8 -17 -1 -28 7 -14 11 -8
16 30 4 26 5 49 2 53 -3 3 -6 -6 -6 -19z"/>
<path d="M10520 15660 c0 -5 5 -10 10 -10 6 0 10 5 10 10 0 6 -4 10 -10 10 -5
0 -10 -4 -10 -10z"/>
<path d="M10350 14886 c-12 -33 -13 -56 -1 -56 10 0 25 69 17 77 -3 3 -10 -6
-16 -21z"/>
<path d="M10315 14700 c-4 -17 -5 -34 -2 -36 2 -3 7 10 11 27 3 18 4 34 2 36
-2 3 -7 -10 -11 -27z"/>
<path d="M10302 14630 c0 -14 2 -19 5 -12 2 6 2 18 0 25 -3 6 -5 1 -5 -13z"/>
<path d="M8666 8048 c-12 -17 -13 -25 -4 -36 10 -12 14 -11 25 4 7 10 13 23
13 30 0 23 -18 25 -34 2z"/>
<path d="M8650 7975 c-8 -9 -8 -15 -2 -15 12 0 26 19 19 26 -2 2 -10 -2 -17
-11z"/>
<path d="M4527 3621 c-4 -18 -7 -45 -6 -60 1 -17 4 -11 10 19 5 25 8 52 6 60
-2 8 -6 0 -10 -19z"/>
<path d="M4386 3441 c-3 -5 2 -15 12 -22 15 -12 16 -12 5 2 -7 9 -10 19 -6 22
3 4 4 7 0 7 -3 0 -8 -4 -11 -9z"/>
<path d="M4360 3310 c0 -5 5 -10 11 -10 5 0 7 5 4 10 -3 6 -8 10 -11 10 -2 0
-4 -4 -4 -10z"/>
<path d="M9170 3040 c0 -5 5 -10 10 -10 6 0 10 5 10 10 0 6 -4 10 -10 10 -5 0
-10 -4 -10 -10z"/>
<path d="M9200 3001 c0 -6 4 -13 10 -16 6 -3 7 1 4 9 -7 18 -14 21 -14 7z"/>
<path d="M9201 2864 c0 -11 3 -14 6 -6 3 7 2 16 -1 19 -3 4 -6 -2 -5 -13z"/>
<path d="M9231 2854 c0 -11 3 -14 6 -6 3 7 2 16 -1 19 -3 4 -6 -2 -5 -13z"/>
<path d="M9197 2821 c-4 -17 -3 -21 5 -13 5 5 8 16 6 23 -3 8 -7 3 -11 -10z"/>
<path d="M9315 2800 c-3 -5 -1 -10 4 -10 6 0 11 5 11 10 0 6 -2 10 -4 10 -3 0
-8 -4 -11 -10z"/>
<path d="M9380 2593 c0 -11 3 -14 8 -7 4 6 14 14 22 17 10 4 8 6 -7 6 -16 1
-23 -5 -23 -16z"/>
<path d="M9360 2564 c0 -8 5 -12 10 -9 6 4 8 11 5 16 -9 14 -15 11 -15 -7z"/>
<path d="M9090 2470 c0 -5 5 -10 11 -10 5 0 7 5 4 10 -3 6 -8 10 -11 10 -2 0
-4 -4 -4 -10z"/>
<path d="M4300 2299 c-45 -23 -68 -28 -127 -29 -39 0 -83 -4 -97 -10 -14 -5
-63 -12 -108 -16 -46 -4 -105 -9 -133 -11 -27 -2 -79 -6 -115 -9 -36 -3 -103
-14 -150 -24 -57 -13 -87 -15 -91 -8 -5 7 -8 7 -13 0 -7 -12 -144 -11 -163 1
-7 5 -18 5 -23 2 -6 -3 -13 0 -16 9 -3 8 -11 13 -18 10 -17 -7 -42 16 -65 61
-23 44 -28 26 -10 -36 10 -32 9 -40 -5 -54 -17 -17 -21 -32 -31 -107 -4 -28
-2 -49 5 -53 13 -8 13 -56 -1 -92 -13 -35 6 -104 27 -96 8 3 21 3 29 -1 12 -4
13 -10 3 -31 -10 -22 -8 -29 11 -49 41 -44 118 -71 202 -70 59 0 80 3 93 17
10 9 20 17 24 18 28 3 55 9 105 23 32 9 63 13 69 10 5 -3 20 4 33 16 21 20 30
21 89 15 57 -6 70 -4 101 14 20 11 43 21 52 21 9 0 33 18 53 40 25 27 45 40
63 40 20 0 30 9 46 43 12 24 21 48 21 54 0 6 16 17 35 23 27 9 35 17 35 36 0
14 6 35 14 47 7 12 19 44 25 72 7 27 27 68 45 90 32 39 50 66 44 64 -2 -1 -28
-14 -58 -30z"/>
<path d="M8965 2280 c-3 -5 -1 -10 4 -10 6 0 11 5 11 10 0 6 -2 10 -4 10 -3 0
-8 -4 -11 -10z"/>
<path d="M8889 1763 c-13 -16 -12 -17 4 -4 16 13 21 21 13 21 -2 0 -10 -8 -17
-17z"/>
<path d="M8857 1743 c-4 -3 -7 -11 -7 -17 0 -6 5 -5 12 2 6 6 9 14 7 17 -3 3
-9 2 -12 -2z"/>
<path d="M8410 1455 c-41 -13 -89 -24 -105 -24 -17 -1 -35 -5 -40 -10 -13 -12
-137 -52 -143 -46 -3 3 -11 0 -18 -6 -8 -6 -20 -9 -29 -6 -8 4 -17 2 -20 -3
-4 -6 -15 -10 -26 -10 -10 0 -19 -4 -19 -8 0 -4 -14 -16 -31 -26 -41 -24 -85
-69 -93 -94 -4 -11 -13 -23 -21 -26 -18 -6 -20 -26 -3 -26 6 0 31 10 56 21 33
16 55 20 90 16 131 -15 324 78 442 214 28 32 48 59 43 58 -4 -1 -42 -12 -83
-24z"/>
<path d="M6544 1159 c-22 -25 -8 -54 25 -53 12 0 21 -4 20 -10 -3 -23 1 -36
12 -36 6 0 8 7 5 16 -5 13 -4 14 7 6 22 -18 48 7 36 36 -4 12 -15 22 -22 22
-8 0 -26 9 -39 20 -25 19 -25 19 -44 -1z m31 -19 c-3 -5 2 -10 12 -11 16 0 16
-1 -2 -8 -23 -9 -50 9 -31 21 16 11 28 10 21 -2z"/>
<path d="M6088 1104 c-21 -13 -45 -35 -53 -48 -9 -13 -44 -42 -78 -64 -95 -62
-111 -82 -111 -148 -1 -44 3 -59 18 -70 11 -8 17 -14 14 -14 -4 0 -3 -13 2
-30 6 -23 5 -30 -5 -30 -7 0 -15 -7 -19 -15 -5 -13 51 -15 466 -15 259 0 469
2 467 4 -2 3 -22 7 -44 9 -22 3 -84 30 -140 61 -110 61 -129 74 -185 129 -22
20 -44 37 -51 37 -6 0 -34 20 -61 45 -28 25 -54 42 -59 39 -5 -3 -9 2 -9 11 0
9 -4 13 -10 10 -5 -3 -10 0 -10 7 0 7 -14 21 -30 30 -17 9 -30 24 -30 33 0 8
-4 15 -10 15 -5 0 -10 7 -10 15 0 20 -8 18 -52 -11z m-55 -281 c-7 -2 -19 -2
-25 0 -7 3 -2 5 12 5 14 0 19 -2 13 -5z m-22 -52 c11 -10 17 -21 12 -24 -4 -2
-19 6 -33 19 -13 13 -19 24 -12 24 7 0 22 -9 33 -19z"/>
<path d="M6605 790 c3 -5 8 -10 11 -10 2 0 4 5 4 10 0 6 -5 10 -11 10 -5 0 -7
-4 -4 -10z"/>
<path d="M7510 782 c-34 -25 -150 -72 -176 -72 -23 0 -94 -27 -94 -35 0 -3 41
-5 91 -5 76 0 90 2 85 15 -5 15 29 41 37 27 2 -4 3 -2 1 4 -3 13 15 34 29 34
5 0 7 -18 4 -40 -4 -34 -2 -40 13 -40 13 0 17 7 15 28 -1 16 -5 35 -10 42 -6
10 0 12 24 8 39 -6 46 4 23 31 -16 20 -18 20 -42 3z"/>
</g>
</svg>
